{"glyphs":{"0":{"ha":971,"x_min":0,"x_max":0,"o":"m 417 428 l 554 428 l 554 588 l 417 588 z m 58 367 l 352 0 l 619 0 l 913 367 l 913 647 l 614 1014 l 352 1014 l 58 647 z m 283 450 l 283 565 l 457 798 l 514 798 l 688 565 l 688 450 l 514 216 l 457 216 z "},"1":{"ha":971,"x_min":0,"x_max":0,"o":"m 121 0 l 870 0 l 870 188 l 618 188 l 618 1014 l 444 1014 l 151 938 l 151 738 l 389 797 l 389 188 l 121 188 z "},"2":{"ha":971,"x_min":0,"x_max":0,"o":"m 135 0 l 886 0 l 886 188 l 390 188 l 840 547 l 840 876 l 615 1014 l 141 1014 l 113 805 l 531 805 l 615 756 l 615 633 l 94 209 z "},"3":{"ha":971,"x_min":0,"x_max":0,"o":"m 117 0 l 650 0 l 879 208 l 879 385 l 700 537 l 838 666 l 838 856 l 650 1014 l 117 1014 l 96 847 l 511 847 l 619 763 l 619 697 l 518 595 l 179 595 l 179 428 l 532 428 l 633 347 l 633 267 l 525 167 l 96 167 z "},"4":{"ha":971,"x_min":0,"x_max":0,"o":"m 88 239 l 583 239 l 583 0 l 803 0 l 803 239 l 921 239 l 921 420 l 803 420 l 803 609 l 583 609 l 583 406 l 284 406 l 617 909 l 448 1031 l 46 420 z "},"5":{"ha":971,"x_min":0,"x_max":0,"o":"m 135 0 l 622 0 l 882 216 l 882 463 l 677 634 l 308 634 l 317 826 l 838 826 l 824 1014 l 126 1014 l 101 460 l 556 460 l 656 382 l 656 307 l 525 209 l 114 209 z "},"6":{"ha":971,"x_min":0,"x_max":0,"o":"m 326 0 l 642 0 l 908 213 l 908 451 l 669 628 l 292 553 l 292 660 l 431 805 l 849 805 l 828 1014 l 319 1014 l 80 738 l 80 213 z m 292 299 l 292 414 l 578 445 l 683 381 l 683 299 l 558 209 l 417 209 z "},"7":{"ha":971,"x_min":0,"x_max":0,"o":"m 313 0 l 541 0 l 541 238 l 884 815 l 849 1014 l 110 1014 l 96 826 l 640 826 l 313 265 z "},"8":{"ha":971,"x_min":0,"x_max":0,"o":"m 307 0 l 664 0 l 900 188 l 900 392 l 739 521 l 872 634 l 872 822 l 664 1014 l 307 1014 l 99 822 l 99 634 l 232 521 l 71 392 l 71 188 z m 297 258 l 297 350 l 390 426 l 581 426 l 674 350 l 674 258 l 581 183 l 390 183 z m 297 686 l 297 756 l 390 840 l 581 840 l 674 756 l 674 686 l 581 598 l 390 598 z "},"9":{"ha":971,"x_min":0,"x_max":0,"o":"m 644 1015 l 329 1015 l 63 801 l 63 564 l 302 387 l 679 462 l 679 354 l 540 210 l 122 210 l 142 1 l 651 1 l 891 277 l 891 801 z m 288 634 l 288 715 l 413 806 l 554 806 l 679 715 l 679 601 l 393 569 z "}," ":{"ha":967,"x_min":0,"x_max":0,"o":""}," ":{"ha":967,"x_min":0,"x_max":0,"o":""},"A":{"ha":971,"x_min":0,"x_max":0,"o":"m 101 0 l 328 0 l 328 210 l 642 210 l 642 0 l 869 0 l 869 648 l 626 1014 l 344 1014 l 101 648 z m 328 373 l 328 566 l 485 828 l 642 566 l 642 373 z "},"Á":{"ha":971,"x_min":0,"x_max":0,"o":"m 101 0 l 328 0 l 328 210 l 642 210 l 642 0 l 869 0 l 869 648 l 626 1014 l 344 1014 l 101 648 z m 328 373 l 328 566 l 485 828 l 642 566 l 642 373 z m 394 1124 l 533 1318 l 769 1318 l 581 1124 z "},"Ă":{"ha":971,"x_min":0,"x_max":0,"o":"m 101 0 l 328 0 l 328 210 l 642 210 l 642 0 l 869 0 l 869 648 l 626 1014 l 344 1014 l 101 648 z m 222 1224 l 359 1115 l 612 1115 l 749 1224 l 749 1315 l 612 1315 l 612 1271 l 556 1228 l 415 1228 l 359 1271 l 359 1315 l 222 1315 z m 328 373 l 328 566 l 485 828 l 642 566 l 642 373 z "},"Â":{"ha":971,"x_min":0,"x_max":0,"o":"m 101 0 l 328 0 l 328 210 l 642 210 l 642 0 l 869 0 l 869 648 l 626 1014 l 344 1014 l 101 648 z m 172 1125 l 380 1125 l 485 1256 l 590 1125 l 798 1125 l 619 1315 l 351 1315 z m 328 373 l 328 566 l 485 828 l 642 566 l 642 373 z "},"Ä":{"ha":971,"x_min":0,"x_max":0,"o":"m 101 0 l 328 0 l 328 210 l 642 210 l 642 0 l 869 0 l 869 648 l 626 1014 l 344 1014 l 101 648 z m 153 1244 l 272 1128 l 391 1244 l 272 1360 z m 328 373 l 328 566 l 485 828 l 642 566 l 642 373 z m 581 1244 l 701 1128 l 819 1244 l 701 1360 z "},"Ạ":{"ha":971,"x_min":0,"x_max":0,"o":"m 101 0 l 328 0 l 328 210 l 642 210 l 642 0 l 869 0 l 869 648 l 626 1014 l 344 1014 l 101 648 z m 328 373 l 328 566 l 485 828 l 642 566 l 642 373 z m 333 -221 l 485 -367 l 637 -221 l 485 -76 z "},"À":{"ha":971,"x_min":0,"x_max":0,"o":"m 101 0 l 328 0 l 328 210 l 642 210 l 642 0 l 869 0 l 869 648 l 626 1014 l 344 1014 l 101 648 z m 201 1318 l 389 1124 l 576 1124 l 437 1318 z m 328 373 l 328 566 l 485 828 l 642 566 l 642 373 z "},"Ā":{"ha":971,"x_min":0,"x_max":0,"o":"m 101 0 l 328 0 l 328 210 l 642 210 l 642 0 l 869 0 l 869 648 l 626 1014 l 344 1014 l 101 648 z m 215 1174 l 756 1174 l 756 1308 l 215 1308 z m 328 373 l 328 566 l 485 828 l 642 566 l 642 373 z "},"Ą":{"ha":971,"x_min":0,"x_max":0,"o":"m 101 0 l 328 0 l 328 210 l 642 210 l 642 0 l 739 0 l 583 -97 l 583 -222 l 725 -308 l 856 -308 l 856 -167 l 782 -167 l 746 -146 l 746 -120 l 869 0 l 869 648 l 626 1014 l 344 1014 l 101 648 z m 328 373 l 328 566 l 485 828 l 642 566 l 642 373 z "},"Å":{"ha":971,"x_min":0,"x_max":0,"o":"m 101 0 l 328 0 l 328 210 l 642 210 l 642 0 l 869 0 l 869 648 l 626 1014 l 561 1014 l 657 1114 l 657 1232 l 546 1347 l 425 1347 l 314 1231 l 314 1113 l 410 1014 l 344 1014 l 101 648 z m 328 373 l 328 566 l 485 828 l 642 566 l 642 373 z m 401 1149 l 401 1197 l 463 1263 l 508 1263 l 570 1197 l 570 1149 l 508 1082 l 463 1082 z "},"Ã":{"ha":971,"x_min":0,"x_max":0,"o":"m 101 0 l 328 0 l 328 210 l 642 210 l 642 0 l 869 0 l 869 648 l 626 1014 l 344 1014 l 101 648 z m 165 1120 l 306 1120 l 306 1166 l 348 1213 l 399 1213 l 496 1120 l 699 1120 l 806 1223 l 806 1319 l 665 1319 l 665 1266 l 623 1226 l 572 1226 l 475 1319 l 272 1319 l 165 1216 z m 328 373 l 328 566 l 485 828 l 642 566 l 642 373 z "},"Æ":{"ha":971,"x_min":0,"x_max":0,"o":"m 466 0 l 916 0 l 937 188 l 684 188 l 684 423 l 871 423 l 871 601 l 684 601 l 684 826 l 923 826 l 902 1014 l 289 1014 l 56 648 l 56 0 l 274 0 l 274 210 l 466 210 z m 274 373 l 274 566 l 419 826 l 466 826 l 466 373 z "},"Ǽ":{"ha":971,"x_min":0,"x_max":0,"o":"m 466 0 l 916 0 l 937 188 l 684 188 l 684 423 l 871 423 l 871 601 l 684 601 l 684 826 l 923 826 l 902 1014 l 289 1014 l 56 648 l 56 0 l 274 0 l 274 210 l 466 210 z m 274 373 l 274 566 l 419 826 l 466 826 l 466 373 z m 479 1124 l 618 1318 l 853 1318 l 666 1124 z "},"B":{"ha":971,"x_min":0,"x_max":0,"o":"m 101 0 l 665 0 l 913 194 l 913 406 l 739 527 l 878 617 l 878 828 l 665 1014 l 101 1014 z m 335 167 l 335 432 l 565 432 l 688 326 l 688 274 l 565 167 z m 335 599 l 335 847 l 565 847 l 688 749 l 688 697 l 565 599 z "},"C":{"ha":971,"x_min":0,"x_max":0,"o":"m 342 0 l 833 0 l 861 209 l 458 209 l 293 447 l 293 567 l 458 805 l 861 805 l 833 1014 l 342 1014 l 67 647 l 67 367 z "},"Ć":{"ha":971,"x_min":0,"x_max":0,"o":"m 342 0 l 833 0 l 861 209 l 458 209 l 293 447 l 293 567 l 458 805 l 861 805 l 833 1014 l 342 1014 l 67 647 l 67 367 z m 457 1124 l 596 1318 l 831 1318 l 644 1124 z "},"Č":{"ha":971,"x_min":0,"x_max":0,"o":"m 342 0 l 833 0 l 861 209 l 458 209 l 293 447 l 293 567 l 458 805 l 861 805 l 833 1014 l 342 1014 l 67 647 l 67 367 z m 234 1315 l 442 1315 l 547 1183 l 653 1315 l 860 1315 l 681 1125 l 413 1125 z "},"Ç":{"ha":971,"x_min":0,"x_max":0,"o":"m 342 0 l 466 0 l 466 -212 l 526 -212 l 597 -253 l 597 -287 l 526 -329 l 438 -329 l 438 -460 l 573 -460 l 720 -350 l 720 -191 l 591 -107 l 591 0 l 833 0 l 861 209 l 458 209 l 293 447 l 293 567 l 458 805 l 861 805 l 833 1014 l 342 1014 l 67 647 l 67 367 z "},"Ĉ":{"ha":971,"x_min":0,"x_max":0,"o":"m 342 0 l 833 0 l 861 209 l 458 209 l 293 447 l 293 567 l 458 805 l 861 805 l 833 1014 l 342 1014 l 67 647 l 67 367 z m 234 1125 l 442 1125 l 547 1256 l 653 1125 l 860 1125 l 681 1315 l 413 1315 z "},"Ċ":{"ha":971,"x_min":0,"x_max":0,"o":"m 342 0 l 833 0 l 861 209 l 458 209 l 293 447 l 293 567 l 458 805 l 861 805 l 833 1014 l 342 1014 l 67 647 l 67 367 z m 424 1244 l 546 1128 l 667 1244 l 546 1360 z "},"D":{"ha":971,"x_min":0,"x_max":0,"o":"m 103 0 l 642 0 l 915 374 l 915 655 l 642 1014 l 103 1014 z m 331 209 l 331 805 l 525 805 l 689 573 l 689 457 l 525 209 z "},"Ð":{"ha":971,"x_min":0,"x_max":0,"o":"m 10 413 l 105 413 l 105 0 l 644 0 l 917 374 l 917 655 l 644 1014 l 105 1014 l 105 602 l 10 602 z m 333 209 l 333 413 l 507 413 l 507 602 l 333 602 l 333 805 l 527 805 l 691 573 l 691 457 l 527 209 z "},"Ď":{"ha":971,"x_min":0,"x_max":0,"o":"m 97 0 l 636 0 l 909 374 l 909 655 l 636 1014 l 97 1014 z m 99 1315 l 306 1315 l 412 1183 l 517 1315 l 725 1315 l 546 1125 l 278 1125 z m 325 209 l 325 805 l 519 805 l 683 573 l 683 457 l 519 209 z "},"Đ":{"ha":971,"x_min":0,"x_max":0,"o":"m 10 413 l 105 413 l 105 0 l 644 0 l 917 374 l 917 655 l 644 1014 l 105 1014 l 105 602 l 10 602 z m 333 209 l 333 413 l 507 413 l 507 602 l 333 602 l 333 805 l 527 805 l 691 573 l 691 457 l 527 209 z "},"E":{"ha":971,"x_min":0,"x_max":0,"o":"m 121 0 l 824 0 l 845 188 l 349 188 l 349 423 l 726 423 l 726 601 l 349 601 l 349 826 l 824 826 l 803 1014 l 121 1014 z "},"É":{"ha":971,"x_min":0,"x_max":0,"o":"m 121 0 l 824 0 l 845 188 l 349 188 l 349 423 l 726 423 l 726 601 l 349 601 l 349 826 l 824 826 l 803 1014 l 121 1014 z m 388 1124 l 527 1318 l 763 1318 l 575 1124 z "},"Ĕ":{"ha":971,"x_min":0,"x_max":0,"o":"m 121 0 l 824 0 l 845 188 l 349 188 l 349 423 l 726 423 l 726 601 l 349 601 l 349 826 l 824 826 l 803 1014 l 121 1014 z m 215 1224 l 353 1115 l 606 1115 l 743 1224 l 743 1315 l 606 1315 l 606 1271 l 550 1228 l 408 1228 l 353 1271 l 353 1315 l 215 1315 z "},"Ě":{"ha":971,"x_min":0,"x_max":0,"o":"m 121 0 l 824 0 l 845 188 l 349 188 l 349 423 l 726 423 l 726 601 l 349 601 l 349 826 l 824 826 l 803 1014 l 121 1014 z m 166 1315 l 374 1315 l 478 1183 l 584 1315 l 792 1315 l 613 1125 l 344 1125 z "},"Ê":{"ha":971,"x_min":0,"x_max":0,"o":"m 121 0 l 824 0 l 845 188 l 349 188 l 349 423 l 726 423 l 726 601 l 349 601 l 349 826 l 824 826 l 803 1014 l 121 1014 z m 166 1125 l 374 1125 l 478 1256 l 584 1125 l 792 1125 l 613 1315 l 344 1315 z "},"Ë":{"ha":971,"x_min":0,"x_max":0,"o":"m 121 0 l 824 0 l 845 188 l 349 188 l 349 423 l 726 423 l 726 601 l 349 601 l 349 826 l 824 826 l 803 1014 l 121 1014 z m 147 1244 l 266 1128 l 385 1244 l 266 1360 z m 575 1244 l 694 1128 l 813 1244 l 694 1360 z "},"Ė":{"ha":971,"x_min":0,"x_max":0,"o":"m 121 0 l 824 0 l 845 188 l 349 188 l 349 423 l 726 423 l 726 601 l 349 601 l 349 826 l 824 826 l 803 1014 l 121 1014 z m 356 1244 l 477 1128 l 599 1244 l 477 1360 z "},"Ẹ":{"ha":971,"x_min":0,"x_max":0,"o":"m 121 0 l 824 0 l 845 188 l 349 188 l 349 423 l 726 423 l 726 601 l 349 601 l 349 826 l 824 826 l 803 1014 l 121 1014 z m 349 -221 l 501 -367 l 653 -221 l 501 -76 z "},"È":{"ha":971,"x_min":0,"x_max":0,"o":"m 121 0 l 824 0 l 845 188 l 349 188 l 349 423 l 726 423 l 726 601 l 349 601 l 349 826 l 824 826 l 803 1014 l 121 1014 z m 195 1318 l 383 1124 l 569 1124 l 431 1318 z "},"Ē":{"ha":971,"x_min":0,"x_max":0,"o":"m 121 0 l 824 0 l 845 188 l 349 188 l 349 423 l 726 423 l 726 601 l 349 601 l 349 826 l 824 826 l 803 1014 l 121 1014 z m 208 1174 l 749 1174 l 749 1308 l 208 1308 z "},"Ę":{"ha":971,"x_min":0,"x_max":0,"o":"m 121 0 l 694 0 l 538 -97 l 538 -222 l 680 -308 l 811 -308 l 811 -167 l 737 -167 l 701 -146 l 701 -120 l 824 0 l 845 188 l 349 188 l 349 423 l 726 423 l 726 601 l 349 601 l 349 826 l 824 826 l 803 1014 l 121 1014 z "},"Ẽ":{"ha":971,"x_min":0,"x_max":0,"o":"m 121 0 l 824 0 l 845 188 l 349 188 l 349 423 l 726 423 l 726 601 l 349 601 l 349 826 l 824 826 l 803 1014 l 121 1014 z m 159 1120 l 300 1120 l 300 1166 l 342 1213 l 392 1213 l 490 1120 l 693 1120 l 799 1223 l 799 1319 l 658 1319 l 658 1266 l 617 1226 l 566 1226 l 469 1319 l 265 1319 l 159 1216 z "},"Ə":{"ha":971,"x_min":0,"x_max":0,"o":"m 253 0 l 622 0 l 897 367 l 897 647 l 624 1014 l 131 1014 l 110 805 l 506 805 l 617 645 l 253 645 l 61 466 l 61 197 z m 249 301 l 249 396 l 339 481 l 671 481 l 671 446 l 504 209 l 339 209 z "},"F":{"ha":971,"x_min":0,"x_max":0,"o":"m 122 0 l 350 0 l 350 374 l 725 374 l 725 553 l 350 553 l 350 826 l 844 826 l 824 1014 l 122 1014 z "},"G":{"ha":971,"x_min":0,"x_max":0,"o":"m 335 0 l 705 0 l 897 204 l 897 576 l 514 576 l 514 404 l 709 404 l 709 297 l 619 209 l 453 209 l 287 446 l 287 568 l 451 805 l 848 805 l 827 1014 l 333 1014 l 61 647 l 61 367 z "},"Ğ":{"ha":971,"x_min":0,"x_max":0,"o":"m 335 0 l 705 0 l 897 204 l 897 576 l 514 576 l 514 404 l 709 404 l 709 297 l 619 209 l 453 209 l 287 446 l 287 568 l 451 805 l 848 805 l 827 1014 l 333 1014 l 61 647 l 61 367 z m 281 1224 l 418 1115 l 671 1115 l 808 1224 l 808 1315 l 671 1315 l 671 1271 l 615 1228 l 474 1228 l 418 1271 l 418 1315 l 281 1315 z "},"Ǧ":{"ha":971,"x_min":0,"x_max":0,"o":"m 335 0 l 705 0 l 897 204 l 897 576 l 514 576 l 514 404 l 709 404 l 709 297 l 619 209 l 453 209 l 287 446 l 287 568 l 451 805 l 848 805 l 827 1014 l 333 1014 l 61 647 l 61 367 z m 231 1315 l 439 1315 l 544 1183 l 650 1315 l 858 1315 l 678 1125 l 410 1125 z "},"Ĝ":{"ha":971,"x_min":0,"x_max":0,"o":"m 335 0 l 705 0 l 897 204 l 897 576 l 514 576 l 514 404 l 709 404 l 709 297 l 619 209 l 453 209 l 287 446 l 287 568 l 451 805 l 848 805 l 827 1014 l 333 1014 l 61 647 l 61 367 z m 231 1125 l 439 1125 l 544 1256 l 650 1125 l 858 1125 l 678 1315 l 410 1315 z "},"Ģ":{"ha":971,"x_min":0,"x_max":0,"o":"m 335 0 l 705 0 l 897 204 l 897 576 l 514 576 l 514 404 l 709 404 l 709 297 l 619 209 l 453 209 l 287 446 l 287 568 l 451 805 l 848 805 l 827 1014 l 333 1014 l 61 647 l 61 367 z m 397 -501 l 484 -546 l 635 -350 l 635 -105 l 397 -105 l 397 -343 l 523 -343 z "},"Ġ":{"ha":971,"x_min":0,"x_max":0,"o":"m 335 0 l 705 0 l 897 204 l 897 576 l 514 576 l 514 404 l 709 404 l 709 297 l 619 209 l 453 209 l 287 446 l 287 568 l 451 805 l 848 805 l 827 1014 l 333 1014 l 61 647 l 61 367 z m 421 1244 l 543 1128 l 664 1244 l 543 1360 z "},"H":{"ha":971,"x_min":0,"x_max":0,"o":"m 635 0 l 869 0 l 869 1014 l 635 1014 l 635 606 l 335 606 l 335 1014 l 101 1014 l 101 0 l 335 0 l 335 418 l 635 418 z "},"Ħ":{"ha":971,"x_min":0,"x_max":0,"o":"m 28 751 l 101 751 l 101 0 l 335 0 l 335 418 l 636 418 l 636 0 l 870 0 l 870 751 l 943 751 l 943 894 l 870 894 l 870 1014 l 636 1014 l 636 894 l 335 894 l 335 1014 l 101 1014 l 101 894 l 28 894 z m 335 606 l 335 751 l 636 751 l 636 606 z "},"Ĥ":{"ha":971,"x_min":0,"x_max":0,"o":"m 635 0 l 869 0 l 869 1014 l 635 1014 l 635 606 l 335 606 l 335 1014 l 101 1014 l 101 0 l 335 0 l 335 418 l 635 418 z m 172 1125 l 380 1125 l 485 1256 l 590 1125 l 798 1125 l 619 1315 l 351 1315 z "},"I":{"ha":971,"x_min":0,"x_max":0,"o":"m 134 0 l 837 0 l 851 188 l 600 188 l 600 826 l 851 826 l 837 1014 l 134 1014 l 120 826 l 371 826 l 371 188 l 120 188 z "},"Ĳ":{"ha":971,"x_min":0,"x_max":0,"o":"m 101 485 l 332 485 l 332 1014 l 101 1014 z m 101 175 l 362 0 l 609 0 l 870 175 l 870 1014 l 479 1014 l 458 822 l 638 822 l 638 260 l 517 188 l 454 188 l 333 260 l 333 336 l 101 336 z "},"Í":{"ha":971,"x_min":0,"x_max":0,"o":"m 134 0 l 837 0 l 851 188 l 600 188 l 600 826 l 851 826 l 837 1014 l 134 1014 l 120 826 l 371 826 l 371 188 l 120 188 z m 395 1124 l 534 1318 l 769 1318 l 582 1124 z "},"Ĭ":{"ha":971,"x_min":0,"x_max":0,"o":"m 134 0 l 837 0 l 851 188 l 600 188 l 600 826 l 851 826 l 837 1014 l 134 1014 l 120 826 l 371 826 l 371 188 l 120 188 z m 222 1224 l 359 1115 l 612 1115 l 749 1224 l 749 1315 l 612 1315 l 612 1271 l 556 1228 l 415 1228 l 359 1271 l 359 1315 l 222 1315 z "},"Î":{"ha":971,"x_min":0,"x_max":0,"o":"m 134 0 l 837 0 l 851 188 l 600 188 l 600 826 l 851 826 l 837 1014 l 134 1014 l 120 826 l 371 826 l 371 188 l 120 188 z m 172 1125 l 380 1125 l 485 1256 l 591 1125 l 799 1125 l 619 1315 l 351 1315 z "},"Ï":{"ha":971,"x_min":0,"x_max":0,"o":"m 134 0 l 837 0 l 851 188 l 600 188 l 600 826 l 851 826 l 837 1014 l 134 1014 l 120 826 l 371 826 l 371 188 l 120 188 z m 153 1244 l 273 1128 l 392 1244 l 273 1360 z m 582 1244 l 701 1128 l 820 1244 l 701 1360 z "},"İ":{"ha":971,"x_min":0,"x_max":0,"o":"m 134 0 l 837 0 l 851 188 l 600 188 l 600 826 l 851 826 l 837 1014 l 134 1014 l 120 826 l 371 826 l 371 188 l 120 188 z m 363 1244 l 484 1128 l 605 1244 l 484 1360 z "},"Ị":{"ha":971,"x_min":0,"x_max":0,"o":"m 134 0 l 837 0 l 851 188 l 600 188 l 600 826 l 851 826 l 837 1014 l 134 1014 l 120 826 l 371 826 l 371 188 l 120 188 z m 333 -221 l 485 -367 l 637 -221 l 485 -76 z "},"Ì":{"ha":971,"x_min":0,"x_max":0,"o":"m 134 0 l 837 0 l 851 188 l 600 188 l 600 826 l 851 826 l 837 1014 l 134 1014 l 120 826 l 371 826 l 371 188 l 120 188 z m 201 1318 l 389 1124 l 576 1124 l 437 1318 z "},"Ī":{"ha":971,"x_min":0,"x_max":0,"o":"m 134 0 l 837 0 l 851 188 l 600 188 l 600 826 l 851 826 l 837 1014 l 134 1014 l 120 826 l 371 826 l 371 188 l 120 188 z m 215 1174 l 756 1174 l 756 1308 l 215 1308 z "},"Į":{"ha":971,"x_min":0,"x_max":0,"o":"m 134 0 l 469 0 l 313 -97 l 313 -222 l 456 -308 l 587 -308 l 587 -167 l 513 -167 l 476 -146 l 476 -120 l 600 0 l 837 0 l 851 188 l 600 188 l 600 826 l 851 826 l 837 1014 l 134 1014 l 120 826 l 371 826 l 371 188 l 120 188 z "},"Ĩ":{"ha":971,"x_min":0,"x_max":0,"o":"m 134 0 l 837 0 l 851 188 l 600 188 l 600 826 l 851 826 l 837 1014 l 134 1014 l 120 826 l 371 826 l 371 188 l 120 188 z m 165 1120 l 306 1120 l 306 1166 l 348 1213 l 399 1213 l 496 1120 l 699 1120 l 806 1223 l 806 1319 l 665 1319 l 665 1266 l 623 1226 l 572 1226 l 475 1319 l 272 1319 l 165 1216 z "},"J":{"ha":971,"x_min":0,"x_max":0,"o":"m 378 0 l 576 0 l 876 311 l 876 1014 l 206 1014 l 185 822 l 651 822 l 651 394 l 476 199 l 290 394 l 290 513 l 65 513 l 65 311 z "},"Ĵ":{"ha":971,"x_min":0,"x_max":0,"o":"m 378 0 l 576 0 l 876 311 l 876 1014 l 206 1014 l 185 822 l 651 822 l 651 394 l 476 199 l 290 394 l 290 513 l 65 513 l 65 311 z m 178 1125 l 385 1125 l 491 1256 l 597 1125 l 804 1125 l 625 1315 l 357 1315 z "},"K":{"ha":971,"x_min":0,"x_max":0,"o":"m 628 0 l 881 0 l 881 251 l 639 519 l 881 763 l 881 1014 l 649 1014 l 649 810 l 447 597 l 328 597 l 328 1014 l 94 1014 l 94 0 l 328 0 l 328 408 l 430 408 l 628 180 z "},"Ķ":{"ha":971,"x_min":0,"x_max":0,"o":"m 628 0 l 881 0 l 881 251 l 639 519 l 881 763 l 881 1014 l 649 1014 l 649 810 l 447 597 l 328 597 l 328 1014 l 94 1014 l 94 0 l 328 0 l 328 408 l 430 408 l 628 180 z m 372 -501 l 459 -546 l 610 -350 l 610 -105 l 372 -105 l 372 -343 l 498 -343 z "},"L":{"ha":971,"x_min":0,"x_max":0,"o":"m 149 0 l 840 0 l 860 188 l 378 188 l 378 1014 l 149 1014 z "},"Ĺ":{"ha":971,"x_min":0,"x_max":0,"o":"m 149 0 l 840 0 l 860 188 l 378 188 l 378 1014 l 149 1014 z m 176 1124 l 315 1318 l 550 1318 l 363 1124 z "},"Ľ":{"ha":971,"x_min":0,"x_max":0,"o":"m 149 0 l 840 0 l 860 188 l 378 188 l 378 1014 l 149 1014 z m 517 863 l 695 863 l 724 1138 l 528 1138 z "},"Ļ":{"ha":971,"x_min":0,"x_max":0,"o":"m 149 0 l 840 0 l 860 188 l 378 188 l 378 1014 l 149 1014 z m 385 -501 l 472 -546 l 624 -350 l 624 -105 l 385 -105 l 385 -343 l 511 -343 z "},"Ŀ":{"ha":971,"x_min":0,"x_max":0,"o":"m 156 0 l 846 0 l 867 188 l 384 188 l 384 1014 l 156 1014 z m 606 588 l 758 442 l 909 588 l 758 733 z "},"Ł":{"ha":971,"x_min":0,"x_max":0,"o":"m 0 361 l 130 422 l 130 0 l 820 0 l 841 188 l 358 188 l 358 528 l 647 663 l 647 854 l 358 719 l 358 1014 l 130 1014 l 130 613 l 0 553 z "},"M":{"ha":971,"x_min":0,"x_max":0,"o":"m 92 0 l 268 0 l 268 665 l 278 665 l 456 270 l 501 270 l 688 665 l 700 665 l 700 0 l 878 0 l 878 1014 l 685 1014 l 489 660 l 481 660 l 314 1014 l 92 1014 z "},"N":{"ha":971,"x_min":0,"x_max":0,"o":"m 101 0 l 314 0 l 314 557 l 322 557 l 730 0 l 869 0 l 869 1014 l 656 1014 l 656 438 l 648 438 l 238 1014 l 101 1014 z "},"Ń":{"ha":971,"x_min":0,"x_max":0,"o":"m 101 0 l 314 0 l 314 557 l 322 557 l 730 0 l 869 0 l 869 1014 l 656 1014 l 656 438 l 648 438 l 238 1014 l 101 1014 z m 394 1124 l 533 1318 l 769 1318 l 581 1124 z "},"Ň":{"ha":971,"x_min":0,"x_max":0,"o":"m 101 0 l 314 0 l 314 557 l 322 557 l 730 0 l 869 0 l 869 1014 l 656 1014 l 656 438 l 648 438 l 238 1014 l 101 1014 z m 172 1315 l 380 1315 l 485 1183 l 590 1315 l 798 1315 l 619 1125 l 351 1125 z "},"Ņ":{"ha":971,"x_min":0,"x_max":0,"o":"m 101 0 l 314 0 l 314 557 l 322 557 l 730 0 l 869 0 l 869 1014 l 656 1014 l 656 438 l 648 438 l 238 1014 l 101 1014 z m 366 -501 l 453 -546 l 604 -350 l 604 -105 l 366 -105 l 366 -343 l 492 -343 z "},"Ɲ":{"ha":971,"x_min":0,"x_max":0,"o":"m 317 -119 l 317 557 l 325 557 l 732 0 l 872 0 l 872 1014 l 659 1014 l 659 438 l 651 438 l 240 1014 l 103 1014 l 103 -40 l 76 -69 l -34 -69 l -13 -278 l 194 -278 z "},"Ñ":{"ha":971,"x_min":0,"x_max":0,"o":"m 101 0 l 314 0 l 314 557 l 322 557 l 730 0 l 869 0 l 869 1014 l 656 1014 l 656 438 l 648 438 l 238 1014 l 101 1014 z m 165 1120 l 306 1120 l 306 1166 l 348 1213 l 399 1213 l 496 1120 l 699 1120 l 806 1223 l 806 1319 l 665 1319 l 665 1266 l 623 1226 l 572 1226 l 475 1319 l 272 1319 l 165 1216 z "},"Ŋ":{"ha":971,"x_min":0,"x_max":0,"o":"m 726 -278 l 863 -119 l 863 1014 l 672 1014 l 672 349 l 663 349 l 336 1014 l 108 1014 l 108 0 l 299 0 l 299 656 l 308 656 l 636 -1 l 636 -40 l 608 -69 l 492 -69 l 513 -278 z "},"O":{"ha":971,"x_min":0,"x_max":0,"o":"m 352 0 l 619 0 l 913 367 l 913 647 l 614 1014 l 352 1014 l 58 647 l 58 367 z m 283 450 l 283 565 l 457 798 l 514 798 l 688 565 l 688 450 l 514 216 l 457 216 z "},"Ó":{"ha":971,"x_min":0,"x_max":0,"o":"m 352 0 l 619 0 l 913 367 l 913 647 l 614 1014 l 352 1014 l 58 647 l 58 367 z m 283 450 l 283 565 l 457 798 l 514 798 l 688 565 l 688 450 l 514 216 l 457 216 z m 395 1124 l 534 1318 l 769 1318 l 582 1124 z "},"Ŏ":{"ha":971,"x_min":0,"x_max":0,"o":"m 352 0 l 619 0 l 913 367 l 913 647 l 614 1014 l 352 1014 l 58 647 l 58 367 z m 222 1224 l 359 1115 l 612 1115 l 749 1224 l 749 1315 l 612 1315 l 612 1271 l 556 1228 l 415 1228 l 359 1271 l 359 1315 l 222 1315 z m 283 450 l 283 565 l 457 798 l 514 798 l 688 565 l 688 450 l 514 216 l 457 216 z "},"Ô":{"ha":971,"x_min":0,"x_max":0,"o":"m 352 0 l 619 0 l 913 367 l 913 647 l 614 1014 l 352 1014 l 58 647 l 58 367 z m 172 1125 l 380 1125 l 485 1256 l 591 1125 l 799 1125 l 619 1315 l 351 1315 z m 283 450 l 283 565 l 457 798 l 514 798 l 688 565 l 688 450 l 514 216 l 457 216 z "},"Ö":{"ha":971,"x_min":0,"x_max":0,"o":"m 352 0 l 619 0 l 913 367 l 913 647 l 614 1014 l 352 1014 l 58 647 l 58 367 z m 153 1244 l 273 1128 l 392 1244 l 273 1360 z m 283 450 l 283 565 l 457 798 l 514 798 l 688 565 l 688 450 l 514 216 l 457 216 z m 582 1244 l 701 1128 l 820 1244 l 701 1360 z "},"Ọ":{"ha":971,"x_min":0,"x_max":0,"o":"m 352 0 l 619 0 l 913 367 l 913 647 l 614 1014 l 352 1014 l 58 647 l 58 367 z m 283 450 l 283 565 l 457 798 l 514 798 l 688 565 l 688 450 l 514 216 l 457 216 z m 333 -221 l 485 -367 l 637 -221 l 485 -76 z "},"Ò":{"ha":971,"x_min":0,"x_max":0,"o":"m 352 0 l 619 0 l 913 367 l 913 647 l 614 1014 l 352 1014 l 58 647 l 58 367 z m 201 1318 l 389 1124 l 576 1124 l 437 1318 z m 283 450 l 283 565 l 457 798 l 514 798 l 688 565 l 688 450 l 514 216 l 457 216 z "},"Ő":{"ha":971,"x_min":0,"x_max":0,"o":"m 352 0 l 619 0 l 913 367 l 913 647 l 614 1014 l 352 1014 l 58 647 l 58 367 z m 283 450 l 283 565 l 457 798 l 514 798 l 688 565 l 688 450 l 514 216 l 457 216 z m 385 1125 l 579 1125 l 709 1318 l 486 1318 z "},"Ō":{"ha":971,"x_min":0,"x_max":0,"o":"m 352 0 l 619 0 l 913 367 l 913 647 l 614 1014 l 352 1014 l 58 647 l 58 367 z m 215 1174 l 756 1174 l 756 1308 l 215 1308 z m 283 450 l 283 565 l 457 798 l 514 798 l 688 565 l 688 450 l 514 216 l 457 216 z "},"Ǫ":{"ha":971,"x_min":0,"x_max":0,"o":"m 352 0 l 489 0 l 333 -97 l 333 -222 l 475 -308 l 606 -308 l 606 -167 l 532 -167 l 496 -146 l 496 -120 l 619 0 l 913 367 l 913 647 l 614 1014 l 352 1014 l 58 647 l 58 367 z m 283 450 l 283 565 l 457 798 l 514 798 l 688 565 l 688 450 l 514 216 l 457 216 z "},"Ø":{"ha":971,"x_min":0,"x_max":0,"o":"m 145 -65 l 268 95 l 344 0 l 612 0 l 906 367 l 906 647 l 791 788 l 936 980 l 808 1077 l 685 918 l 606 1014 l 344 1014 l 50 647 l 50 367 l 164 224 l 18 31 z m 276 450 l 276 565 l 449 798 l 506 798 l 560 725 l 314 399 z m 397 288 l 642 616 l 680 565 l 680 450 l 506 216 l 449 216 z "},"Ǿ":{"ha":971,"x_min":0,"x_max":0,"o":"m 145 -65 l 268 95 l 344 0 l 612 0 l 906 367 l 906 647 l 791 788 l 936 980 l 808 1077 l 685 918 l 606 1014 l 344 1014 l 50 647 l 50 367 l 164 224 l 18 31 z m 276 450 l 276 565 l 449 798 l 506 798 l 560 725 l 314 399 z m 388 1124 l 526 1318 l 762 1318 l 574 1124 z m 397 288 l 642 616 l 680 565 l 680 450 l 506 216 l 449 216 z "},"Õ":{"ha":971,"x_min":0,"x_max":0,"o":"m 352 0 l 619 0 l 913 367 l 913 647 l 614 1014 l 352 1014 l 58 647 l 58 367 z m 165 1120 l 306 1120 l 306 1166 l 348 1213 l 399 1213 l 496 1120 l 699 1120 l 806 1223 l 806 1319 l 665 1319 l 665 1266 l 623 1226 l 572 1226 l 475 1319 l 272 1319 l 165 1216 z m 283 450 l 283 565 l 457 798 l 514 798 l 688 565 l 688 450 l 514 216 l 457 216 z "},"Œ":{"ha":971,"x_min":0,"x_max":0,"o":"m 306 0 l 917 0 l 938 188 l 685 188 l 685 423 l 872 423 l 872 601 l 685 601 l 685 826 l 924 826 l 903 1014 l 306 1014 l 55 655 l 55 374 z m 263 447 l 263 583 l 424 826 l 467 826 l 467 188 l 424 188 z "},"P":{"ha":971,"x_min":0,"x_max":0,"o":"m 90 0 l 324 0 l 324 335 l 672 335 l 919 551 l 919 792 l 665 1014 l 90 1014 z m 324 502 l 324 805 l 568 805 l 694 712 l 694 631 l 568 502 z "},"Þ":{"ha":971,"x_min":0,"x_max":0,"o":"m 109 0 l 338 0 l 338 190 l 671 190 l 919 406 l 919 648 l 665 869 l 338 869 l 338 1014 l 109 1014 z m 338 358 l 338 697 l 567 697 l 693 603 l 693 487 l 567 358 z "},"Q":{"ha":971,"x_min":0,"x_max":0,"o":"m 592 -299 l 800 -187 l 634 17 l 913 367 l 913 647 l 622 1014 l 351 1014 l 58 647 l 58 367 z m 283 450 l 283 565 l 457 798 l 513 798 l 688 565 l 688 450 l 513 216 l 473 216 z "},"R":{"ha":971,"x_min":0,"x_max":0,"o":"m 102 0 l 336 0 l 336 383 l 525 383 l 680 165 l 680 0 l 913 0 l 913 176 l 714 437 l 907 590 l 907 808 l 642 1014 l 102 1014 z m 336 530 l 336 805 l 552 805 l 681 722 l 681 648 l 552 530 z "},"Ŕ":{"ha":971,"x_min":0,"x_max":0,"o":"m 102 0 l 336 0 l 336 383 l 525 383 l 680 165 l 680 0 l 913 0 l 913 176 l 714 437 l 907 590 l 907 808 l 642 1014 l 102 1014 z m 336 530 l 336 805 l 552 805 l 681 722 l 681 648 l 552 530 z m 403 1124 l 542 1318 l 777 1318 l 590 1124 z "},"Ř":{"ha":971,"x_min":0,"x_max":0,"o":"m 102 0 l 336 0 l 336 383 l 525 383 l 680 165 l 680 0 l 913 0 l 913 176 l 714 437 l 907 590 l 907 808 l 642 1014 l 102 1014 z m 180 1315 l 388 1315 l 493 1183 l 599 1315 l 806 1315 l 627 1125 l 359 1125 z m 336 530 l 336 805 l 552 805 l 681 722 l 681 648 l 552 530 z "},"Ŗ":{"ha":971,"x_min":0,"x_max":0,"o":"m 102 0 l 336 0 l 336 383 l 525 383 l 680 165 l 680 0 l 913 0 l 913 176 l 714 437 l 907 590 l 907 808 l 642 1014 l 102 1014 z m 336 530 l 336 805 l 552 805 l 681 722 l 681 648 l 552 530 z m 374 -501 l 460 -546 l 612 -350 l 612 -105 l 374 -105 l 374 -343 l 499 -343 z "},"S":{"ha":971,"x_min":0,"x_max":0,"o":"m 128 0 l 665 0 l 854 216 l 854 375 l 374 702 l 374 747 l 421 805 l 847 805 l 826 1014 l 303 1014 l 115 798 l 115 639 l 594 312 l 594 267 l 549 209 l 108 209 z "},"Ś":{"ha":971,"x_min":0,"x_max":0,"o":"m 128 0 l 665 0 l 854 216 l 854 375 l 374 702 l 374 747 l 421 805 l 847 805 l 826 1014 l 303 1014 l 115 798 l 115 639 l 594 312 l 594 267 l 549 209 l 108 209 z m 394 1124 l 533 1318 l 769 1318 l 581 1124 z "},"Š":{"ha":971,"x_min":0,"x_max":0,"o":"m 128 0 l 665 0 l 854 216 l 854 375 l 374 702 l 374 747 l 421 805 l 847 805 l 826 1014 l 303 1014 l 115 798 l 115 639 l 594 312 l 594 267 l 549 209 l 108 209 z m 172 1315 l 379 1315 l 485 1183 l 590 1315 l 798 1315 l 619 1125 l 351 1125 z "},"Ş":{"ha":971,"x_min":0,"x_max":0,"o":"m 128 0 l 421 0 l 421 -212 l 481 -212 l 551 -253 l 551 -287 l 481 -329 l 393 -329 l 393 -460 l 528 -460 l 675 -350 l 675 -191 l 546 -107 l 546 0 l 665 0 l 854 216 l 854 375 l 374 702 l 374 747 l 421 805 l 847 805 l 826 1014 l 303 1014 l 115 798 l 115 639 l 594 312 l 594 267 l 549 209 l 108 209 z "},"Ŝ":{"ha":971,"x_min":0,"x_max":0,"o":"m 128 0 l 665 0 l 854 216 l 854 375 l 374 702 l 374 747 l 421 805 l 847 805 l 826 1014 l 303 1014 l 115 798 l 115 639 l 594 312 l 594 267 l 549 209 l 108 209 z m 172 1125 l 379 1125 l 485 1256 l 590 1125 l 798 1125 l 619 1315 l 351 1315 z "},"Ș":{"ha":971,"x_min":0,"x_max":0,"o":"m 128 0 l 665 0 l 854 216 l 854 375 l 374 702 l 374 747 l 421 805 l 847 805 l 826 1014 l 303 1014 l 115 798 l 115 639 l 594 312 l 594 267 l 549 209 l 108 209 z m 365 -501 l 452 -546 l 603 -350 l 603 -105 l 365 -105 l 365 -343 l 491 -343 z "},"ẞ":{"ha":971,"x_min":0,"x_max":0,"o":"m 830 1014 l 101 1014 l 101 0 l 335 0 l 335 826 l 589 826 l 494 619 l 494 495 l 694 354 l 694 267 l 601 167 l 467 167 l 467 0 l 703 0 l 913 181 l 913 440 l 708 598 l 830 844 z "},"T":{"ha":971,"x_min":0,"x_max":0,"o":"m 373 0 l 602 0 l 602 826 l 888 826 l 874 1014 l 95 1014 l 81 826 l 373 826 z "},"Ŧ":{"ha":971,"x_min":0,"x_max":0,"o":"m 197 411 l 373 411 l 373 0 l 602 0 l 602 411 l 774 411 l 774 599 l 602 599 l 602 826 l 888 826 l 874 1014 l 95 1014 l 81 826 l 373 826 l 373 599 l 197 599 z "},"Ť":{"ha":971,"x_min":0,"x_max":0,"o":"m 373 0 l 602 0 l 602 826 l 888 826 l 874 1014 l 95 1014 l 81 826 l 373 826 z m 172 1315 l 380 1315 l 485 1183 l 591 1315 l 799 1315 l 619 1125 l 351 1125 z "},"Ţ":{"ha":971,"x_min":0,"x_max":0,"o":"m 373 0 l 425 0 l 425 -212 l 485 -212 l 556 -253 l 556 -287 l 485 -329 l 397 -329 l 397 -460 l 532 -460 l 679 -350 l 679 -191 l 550 -106 l 550 0 l 602 0 l 602 826 l 888 826 l 874 1014 l 95 1014 l 81 826 l 373 826 z "},"Ț":{"ha":971,"x_min":0,"x_max":0,"o":"m 373 0 l 602 0 l 602 826 l 888 826 l 874 1014 l 95 1014 l 81 826 l 373 826 z m 370 -501 l 457 -546 l 608 -350 l 608 -105 l 370 -105 l 370 -343 l 496 -343 z "},"U":{"ha":971,"x_min":0,"x_max":0,"o":"m 251 0 l 719 0 l 869 189 l 869 1014 l 637 1014 l 637 260 l 582 188 l 388 188 l 333 260 l 333 1014 l 101 1014 l 101 189 z "},"Ú":{"ha":971,"x_min":0,"x_max":0,"o":"m 251 0 l 719 0 l 869 189 l 869 1014 l 637 1014 l 637 260 l 582 188 l 388 188 l 333 260 l 333 1014 l 101 1014 l 101 189 z m 394 1124 l 533 1318 l 769 1318 l 581 1124 z "},"Ŭ":{"ha":971,"x_min":0,"x_max":0,"o":"m 251 0 l 719 0 l 869 189 l 869 1014 l 637 1014 l 637 260 l 582 188 l 388 188 l 333 260 l 333 1014 l 101 1014 l 101 189 z m 222 1224 l 359 1115 l 612 1115 l 749 1224 l 749 1315 l 612 1315 l 612 1271 l 556 1228 l 415 1228 l 359 1271 l 359 1315 l 222 1315 z "},"Û":{"ha":971,"x_min":0,"x_max":0,"o":"m 251 0 l 719 0 l 869 189 l 869 1014 l 637 1014 l 637 260 l 582 188 l 388 188 l 333 260 l 333 1014 l 101 1014 l 101 189 z m 172 1125 l 380 1125 l 485 1256 l 590 1125 l 798 1125 l 619 1315 l 351 1315 z "},"Ü":{"ha":971,"x_min":0,"x_max":0,"o":"m 251 0 l 719 0 l 869 189 l 869 1014 l 637 1014 l 637 260 l 582 188 l 388 188 l 333 260 l 333 1014 l 101 1014 l 101 189 z m 153 1244 l 272 1128 l 391 1244 l 272 1360 z m 581 1244 l 701 1128 l 819 1244 l 701 1360 z "},"Ụ":{"ha":971,"x_min":0,"x_max":0,"o":"m 251 0 l 719 0 l 869 189 l 869 1014 l 637 1014 l 637 260 l 582 188 l 388 188 l 333 260 l 333 1014 l 101 1014 l 101 189 z m 333 -221 l 485 -367 l 637 -221 l 485 -76 z "},"Ù":{"ha":971,"x_min":0,"x_max":0,"o":"m 251 0 l 719 0 l 869 189 l 869 1014 l 637 1014 l 637 260 l 582 188 l 388 188 l 333 260 l 333 1014 l 101 1014 l 101 189 z m 201 1318 l 389 1124 l 576 1124 l 437 1318 z "},"Ű":{"ha":971,"x_min":0,"x_max":0,"o":"m 251 0 l 719 0 l 869 189 l 869 1014 l 637 1014 l 637 260 l 582 188 l 388 188 l 333 260 l 333 1014 l 101 1014 l 101 189 z m 385 1125 l 579 1125 l 709 1318 l 486 1318 z "},"Ū":{"ha":971,"x_min":0,"x_max":0,"o":"m 251 0 l 719 0 l 869 189 l 869 1014 l 637 1014 l 637 260 l 582 188 l 388 188 l 333 260 l 333 1014 l 101 1014 l 101 189 z m 215 1174 l 756 1174 l 756 1308 l 215 1308 z "},"Ų":{"ha":971,"x_min":0,"x_max":0,"o":"m 251 0 l 494 0 l 338 -97 l 338 -222 l 481 -308 l 612 -308 l 612 -167 l 538 -167 l 501 -146 l 501 -120 l 625 0 l 719 0 l 869 189 l 869 1014 l 637 1014 l 637 260 l 582 188 l 388 188 l 333 260 l 333 1014 l 101 1014 l 101 189 z "},"Ů":{"ha":971,"x_min":0,"x_max":0,"o":"m 251 0 l 719 0 l 869 189 l 869 1014 l 637 1014 l 637 260 l 582 188 l 388 188 l 333 260 l 333 1014 l 101 1014 l 101 189 z m 314 1113 l 425 998 l 546 998 l 657 1114 l 657 1232 l 546 1347 l 425 1347 l 314 1231 z m 401 1149 l 401 1197 l 463 1263 l 508 1263 l 570 1197 l 570 1149 l 508 1082 l 463 1082 z "},"Ũ":{"ha":971,"x_min":0,"x_max":0,"o":"m 251 0 l 719 0 l 869 189 l 869 1014 l 637 1014 l 637 260 l 582 188 l 388 188 l 333 260 l 333 1014 l 101 1014 l 101 189 z m 165 1120 l 306 1120 l 306 1166 l 348 1213 l 399 1213 l 496 1120 l 699 1120 l 806 1223 l 806 1319 l 665 1319 l 665 1266 l 623 1226 l 572 1226 l 475 1319 l 272 1319 l 165 1216 z "},"V":{"ha":971,"x_min":0,"x_max":0,"o":"m 344 0 l 626 0 l 868 491 l 868 1014 l 641 1014 l 641 570 l 485 194 l 329 570 l 329 1014 l 102 1014 l 102 491 z "},"W":{"ha":971,"x_min":0,"x_max":0,"o":"m 243 0 l 401 0 l 485 323 l 564 0 l 728 0 l 864 477 l 864 1014 l 676 1014 l 676 494 l 622 240 l 561 535 l 561 717 l 410 717 l 410 535 l 350 240 l 295 494 l 295 1014 l 107 1014 l 107 477 z "},"Ẃ":{"ha":971,"x_min":0,"x_max":0,"o":"m 243 0 l 401 0 l 485 323 l 564 0 l 728 0 l 864 477 l 864 1014 l 676 1014 l 676 494 l 622 240 l 561 535 l 561 717 l 410 717 l 410 535 l 350 240 l 295 494 l 295 1014 l 107 1014 l 107 477 z m 395 1124 l 534 1318 l 769 1318 l 582 1124 z "},"Ŵ":{"ha":971,"x_min":0,"x_max":0,"o":"m 243 0 l 401 0 l 485 323 l 564 0 l 728 0 l 864 477 l 864 1014 l 676 1014 l 676 494 l 622 240 l 561 535 l 561 717 l 410 717 l 410 535 l 350 240 l 295 494 l 295 1014 l 107 1014 l 107 477 z m 172 1125 l 380 1125 l 485 1256 l 591 1125 l 799 1125 l 619 1315 l 351 1315 z "},"Ẅ":{"ha":971,"x_min":0,"x_max":0,"o":"m 243 0 l 401 0 l 485 323 l 564 0 l 728 0 l 864 477 l 864 1014 l 676 1014 l 676 494 l 622 240 l 561 535 l 561 717 l 410 717 l 410 535 l 350 240 l 295 494 l 295 1014 l 107 1014 l 107 477 z m 153 1244 l 273 1128 l 392 1244 l 273 1360 z m 582 1244 l 701 1128 l 820 1244 l 701 1360 z "},"Ẁ":{"ha":971,"x_min":0,"x_max":0,"o":"m 243 0 l 401 0 l 485 323 l 564 0 l 728 0 l 864 477 l 864 1014 l 676 1014 l 676 494 l 622 240 l 561 535 l 561 717 l 410 717 l 410 535 l 350 240 l 295 494 l 295 1014 l 107 1014 l 107 477 z m 201 1318 l 389 1124 l 576 1124 l 437 1318 z "},"X":{"ha":971,"x_min":0,"x_max":0,"o":"m 647 0 l 879 0 l 879 257 l 647 495 l 879 765 l 879 1014 l 667 1014 l 667 826 l 508 637 l 324 826 l 324 1014 l 92 1014 l 92 758 l 324 519 l 92 250 l 92 0 l 303 0 l 303 189 l 463 377 l 647 189 z "},"Y":{"ha":971,"x_min":0,"x_max":0,"o":"m 371 0 l 599 0 l 599 362 l 881 734 l 881 1014 l 655 1014 l 655 802 l 489 569 l 323 802 l 323 1014 l 90 1014 l 90 734 l 371 363 z "},"Ý":{"ha":971,"x_min":0,"x_max":0,"o":"m 371 0 l 599 0 l 599 362 l 881 734 l 881 1014 l 655 1014 l 655 802 l 489 569 l 323 802 l 323 1014 l 90 1014 l 90 734 l 371 363 z m 395 1124 l 534 1318 l 769 1318 l 582 1124 z "},"Ŷ":{"ha":971,"x_min":0,"x_max":0,"o":"m 371 0 l 599 0 l 599 362 l 881 734 l 881 1014 l 655 1014 l 655 802 l 489 569 l 323 802 l 323 1014 l 90 1014 l 90 734 l 371 363 z m 172 1125 l 380 1125 l 485 1256 l 591 1125 l 799 1125 l 619 1315 l 351 1315 z "},"Ÿ":{"ha":971,"x_min":0,"x_max":0,"o":"m 371 0 l 599 0 l 599 362 l 881 734 l 881 1014 l 655 1014 l 655 802 l 489 569 l 323 802 l 323 1014 l 90 1014 l 90 734 l 371 363 z m 153 1244 l 273 1128 l 392 1244 l 273 1360 z m 582 1244 l 701 1128 l 820 1244 l 701 1360 z "},"Ỳ":{"ha":971,"x_min":0,"x_max":0,"o":"m 371 0 l 599 0 l 599 362 l 881 734 l 881 1014 l 655 1014 l 655 802 l 489 569 l 323 802 l 323 1014 l 90 1014 l 90 734 l 371 363 z m 201 1318 l 389 1124 l 576 1124 l 437 1318 z "},"Ȳ":{"ha":971,"x_min":0,"x_max":0,"o":"m 371 0 l 599 0 l 599 362 l 881 734 l 881 1014 l 655 1014 l 655 802 l 489 569 l 323 802 l 323 1014 l 90 1014 l 90 734 l 371 363 z m 215 1174 l 756 1174 l 756 1308 l 215 1308 z "},"Ỹ":{"ha":971,"x_min":0,"x_max":0,"o":"m 371 0 l 599 0 l 599 362 l 881 734 l 881 1014 l 655 1014 l 655 802 l 489 569 l 323 802 l 323 1014 l 90 1014 l 90 734 l 371 363 z m 165 1120 l 306 1120 l 306 1166 l 348 1213 l 399 1213 l 496 1120 l 699 1120 l 806 1223 l 806 1319 l 665 1319 l 665 1266 l 623 1226 l 572 1226 l 475 1319 l 272 1319 l 165 1216 z "},"Z":{"ha":971,"x_min":0,"x_max":0,"o":"m 131 0 l 853 0 l 894 185 l 369 185 l 856 865 l 813 1014 l 134 1014 l 92 831 l 575 831 l 89 157 z "},"Ź":{"ha":971,"x_min":0,"x_max":0,"o":"m 131 0 l 853 0 l 894 185 l 369 185 l 856 865 l 813 1014 l 134 1014 l 92 831 l 575 831 l 89 157 z m 406 1124 l 544 1318 l 780 1318 l 592 1124 z "},"Ž":{"ha":971,"x_min":0,"x_max":0,"o":"m 131 0 l 853 0 l 894 185 l 369 185 l 856 865 l 813 1014 l 134 1014 l 92 831 l 575 831 l 89 157 z m 183 1315 l 391 1315 l 496 1183 l 601 1315 l 809 1315 l 630 1125 l 362 1125 z "},"Ż":{"ha":971,"x_min":0,"x_max":0,"o":"m 131 0 l 853 0 l 894 185 l 369 185 l 856 865 l 813 1014 l 134 1014 l 92 831 l 575 831 l 89 157 z m 373 1244 l 494 1128 l 616 1244 l 494 1360 z "},"a":{"ha":971,"x_min":0,"x_max":0,"o":"m 707 0 l 877 0 l 877 578 l 708 751 l 176 751 l 156 576 l 589 576 l 651 531 l 651 447 l 269 447 l 67 322 l 67 138 l 285 -15 l 673 71 z m 272 231 l 272 270 l 359 315 l 651 315 l 651 195 l 368 147 z "},"á":{"ha":971,"x_min":0,"x_max":0,"o":"m 707 0 l 877 0 l 877 578 l 708 751 l 176 751 l 156 576 l 589 576 l 651 531 l 651 447 l 269 447 l 67 322 l 67 138 l 285 -15 l 673 71 z m 272 231 l 272 270 l 359 315 l 651 315 l 651 195 l 368 147 z m 393 885 l 532 1141 l 767 1141 l 580 885 z "},"ă":{"ha":971,"x_min":0,"x_max":0,"o":"m 707 0 l 877 0 l 877 578 l 708 751 l 176 751 l 156 576 l 589 576 l 651 531 l 651 447 l 269 447 l 67 322 l 67 138 l 285 -15 l 673 71 z m 204 1010 l 345 883 l 622 883 l 763 1010 l 763 1141 l 624 1141 l 624 1059 l 563 1000 l 404 1000 l 343 1059 l 343 1141 l 204 1141 z m 272 231 l 272 270 l 359 315 l 651 315 l 651 195 l 368 147 z "},"â":{"ha":971,"x_min":0,"x_max":0,"o":"m 707 0 l 877 0 l 877 578 l 708 751 l 176 751 l 156 576 l 589 576 l 651 531 l 651 447 l 269 447 l 67 322 l 67 138 l 285 -15 l 673 71 z m 164 885 l 361 885 l 483 1064 l 606 885 l 803 885 l 617 1141 l 349 1141 z m 272 231 l 272 270 l 359 315 l 651 315 l 651 195 l 368 147 z "},"ä":{"ha":971,"x_min":0,"x_max":0,"o":"m 707 0 l 877 0 l 877 578 l 708 751 l 176 751 l 156 576 l 589 576 l 651 531 l 651 447 l 269 447 l 67 322 l 67 138 l 285 -15 l 673 71 z m 128 999 l 269 853 l 410 999 l 269 1144 z m 272 231 l 272 270 l 359 315 l 651 315 l 651 195 l 368 147 z m 557 999 l 698 853 l 838 999 l 698 1144 z "},"à":{"ha":971,"x_min":0,"x_max":0,"o":"m 707 0 l 877 0 l 877 578 l 708 751 l 176 751 l 156 576 l 589 576 l 651 531 l 651 447 l 269 447 l 67 322 l 67 138 l 285 -15 l 673 71 z m 200 1141 l 388 885 l 574 885 l 435 1141 z m 272 231 l 272 270 l 359 315 l 651 315 l 651 195 l 368 147 z "},"ā":{"ha":971,"x_min":0,"x_max":0,"o":"m 707 0 l 877 0 l 877 578 l 708 751 l 176 751 l 156 576 l 589 576 l 651 531 l 651 447 l 269 447 l 67 322 l 67 138 l 285 -15 l 673 71 z m 213 902 l 754 902 l 754 1036 l 213 1036 z m 272 231 l 272 270 l 359 315 l 651 315 l 651 195 l 368 147 z "},"ą":{"ha":971,"x_min":0,"x_max":0,"o":"m 707 0 l 747 0 l 590 -97 l 590 -222 l 733 -308 l 864 -308 l 864 -167 l 790 -167 l 753 -146 l 753 -120 l 877 0 l 877 578 l 708 751 l 176 751 l 156 576 l 589 576 l 651 531 l 651 447 l 269 447 l 67 322 l 67 138 l 285 -15 l 673 71 z m 272 231 l 272 270 l 359 315 l 651 315 l 651 195 l 368 147 z "},"å":{"ha":971,"x_min":0,"x_max":0,"o":"m 707 0 l 877 0 l 877 578 l 708 751 l 176 751 l 156 576 l 589 576 l 651 531 l 651 447 l 269 447 l 67 322 l 67 138 l 285 -15 l 673 71 z m 272 231 l 272 270 l 359 315 l 651 315 l 651 195 l 368 147 z m 313 956 l 424 840 l 544 840 l 656 956 l 656 1074 l 544 1190 l 424 1190 l 313 1074 z m 399 992 l 399 1039 l 462 1106 l 506 1106 l 569 1039 l 569 992 l 506 924 l 462 924 z "},"ã":{"ha":971,"x_min":0,"x_max":0,"o":"m 707 0 l 877 0 l 877 578 l 708 751 l 176 751 l 156 576 l 589 576 l 651 531 l 651 447 l 269 447 l 67 322 l 67 138 l 285 -15 l 673 71 z m 150 873 l 291 873 l 291 943 l 336 1007 l 388 1007 l 496 873 l 705 873 l 811 1000 l 811 1120 l 670 1120 l 670 1043 l 625 986 l 573 986 l 465 1120 l 256 1120 l 150 993 z m 272 231 l 272 270 l 359 315 l 651 315 l 651 195 l 368 147 z "},"æ":{"ha":971,"x_min":0,"x_max":0,"o":"m 439 751 l 117 751 l 97 597 l 358 597 l 397 531 l 397 447 l 219 447 l 53 331 l 53 134 l 233 -7 l 444 85 l 482 85 l 590 0 l 869 0 l 890 153 l 653 153 l 549 238 l 549 315 l 831 315 l 918 395 l 918 640 l 780 751 l 576 751 l 503 649 z m 209 204 l 209 273 l 275 315 l 397 315 l 397 185 l 292 147 z m 549 447 l 549 458 l 642 591 l 742 591 l 778 565 l 778 484 l 740 447 z "},"ǽ":{"ha":971,"x_min":0,"x_max":0,"o":"m 439 751 l 117 751 l 97 597 l 358 597 l 397 531 l 397 447 l 219 447 l 53 331 l 53 134 l 233 -7 l 444 85 l 482 85 l 590 0 l 869 0 l 890 153 l 653 153 l 549 238 l 549 315 l 831 315 l 918 395 l 918 640 l 780 751 l 576 751 l 503 649 z m 209 204 l 209 273 l 275 315 l 397 315 l 397 185 l 292 147 z m 395 885 l 534 1141 l 769 1141 l 582 885 z m 549 447 l 549 458 l 642 591 l 742 591 l 778 565 l 778 484 l 740 447 z "},"b":{"ha":971,"x_min":0,"x_max":0,"o":"m 81 0 l 615 0 l 898 229 l 898 547 l 635 768 l 310 676 l 310 1063 l 81 1021 z m 300 183 l 300 521 l 565 559 l 672 491 l 672 305 l 517 183 z "},"c":{"ha":971,"x_min":0,"x_max":0,"o":"m 331 0 l 849 0 l 881 195 l 422 195 l 283 321 l 283 431 l 422 556 l 881 556 l 849 751 l 331 751 l 71 492 l 71 260 z "},"ć":{"ha":971,"x_min":0,"x_max":0,"o":"m 331 0 l 849 0 l 881 195 l 422 195 l 283 321 l 283 431 l 422 556 l 881 556 l 849 751 l 331 751 l 71 492 l 71 260 z m 421 885 l 560 1141 l 795 1141 l 608 885 z "},"č":{"ha":971,"x_min":0,"x_max":0,"o":"m 331 0 l 849 0 l 881 195 l 422 195 l 283 321 l 283 431 l 422 556 l 881 556 l 849 751 l 331 751 l 71 492 l 71 260 z m 191 1141 l 388 1141 l 511 963 l 634 1141 l 831 1141 l 645 885 l 377 885 z "},"ç":{"ha":971,"x_min":0,"x_max":0,"o":"m 331 0 l 482 0 l 482 -212 l 542 -212 l 613 -253 l 613 -287 l 542 -329 l 454 -329 l 454 -460 l 589 -460 l 736 -350 l 736 -191 l 607 -107 l 607 0 l 849 0 l 881 195 l 422 195 l 283 321 l 283 431 l 422 556 l 881 556 l 849 751 l 331 751 l 71 492 l 71 260 z "},"ĉ":{"ha":971,"x_min":0,"x_max":0,"o":"m 331 0 l 849 0 l 881 195 l 422 195 l 283 321 l 283 431 l 422 556 l 881 556 l 849 751 l 331 751 l 71 492 l 71 260 z m 191 885 l 388 885 l 511 1064 l 634 885 l 831 885 l 645 1141 l 377 1141 z "},"ċ":{"ha":971,"x_min":0,"x_max":0,"o":"m 331 0 l 849 0 l 881 195 l 422 195 l 283 321 l 283 431 l 422 556 l 881 556 l 849 751 l 331 751 l 71 492 l 71 260 z m 359 1001 l 511 855 l 663 1001 l 511 1146 z "},"d":{"ha":971,"x_min":0,"x_max":0,"o":"m 739 0 l 890 0 l 890 1063 l 660 1021 l 660 750 l 356 750 l 73 521 l 73 203 l 335 -18 l 691 83 z m 299 260 l 299 446 l 453 567 l 671 567 l 671 229 l 406 191 z "},"ð":{"ha":971,"x_min":0,"x_max":0,"o":"m 241 711 l 467 812 l 629 628 l 349 628 l 81 478 l 81 199 l 327 0 l 661 0 l 908 213 l 908 599 l 647 892 l 823 970 l 782 1063 l 576 971 l 494 1063 l 248 1063 l 398 892 l 200 803 z m 290 268 l 290 390 l 401 456 l 706 456 l 706 282 l 571 174 l 410 174 z "},"ď":{"ha":971,"x_min":0,"x_max":0,"o":"m 601 0 l 744 0 l 744 1063 l 523 1021 l 523 750 l 319 750 l 57 521 l 57 203 l 299 -18 l 563 79 z m 273 260 l 273 446 l 406 567 l 544 567 l 544 226 l 358 191 z m 808 911 l 975 911 l 1002 1186 l 818 1186 z "},"đ":{"ha":971,"x_min":0,"x_max":0,"o":"m 333 827 l 660 827 l 660 681 l 356 681 l 72 451 l 72 203 l 335 -18 l 690 83 l 738 0 l 889 0 l 889 827 l 951 827 l 951 938 l 889 938 l 889 1063 l 660 1021 l 660 938 l 333 938 z m 299 260 l 299 376 l 453 498 l 670 498 l 670 229 l 405 191 z "},"e":{"ha":971,"x_min":0,"x_max":0,"o":"m 349 0 l 826 0 l 847 174 l 460 174 l 307 297 l 307 312 l 771 312 l 886 392 l 886 588 l 702 751 l 358 751 l 95 495 l 95 256 z m 310 444 l 465 591 l 627 591 l 701 542 l 701 490 l 638 444 z "},"é":{"ha":971,"x_min":0,"x_max":0,"o":"m 349 0 l 826 0 l 847 174 l 460 174 l 307 297 l 307 312 l 771 312 l 886 392 l 886 588 l 702 751 l 358 751 l 95 495 l 95 256 z m 310 444 l 465 591 l 627 591 l 701 542 l 701 490 l 638 444 z m 428 885 l 567 1141 l 802 1141 l 615 885 z "},"ĕ":{"ha":971,"x_min":0,"x_max":0,"o":"m 349 0 l 826 0 l 847 174 l 460 174 l 307 297 l 307 312 l 771 312 l 886 392 l 886 588 l 702 751 l 358 751 l 95 495 l 95 256 z m 238 1010 l 379 883 l 657 883 l 798 1010 l 798 1141 l 658 1141 l 658 1059 l 598 1000 l 438 1000 l 378 1059 l 378 1141 l 238 1141 z m 310 444 l 465 591 l 627 591 l 701 542 l 701 490 l 638 444 z "},"ě":{"ha":971,"x_min":0,"x_max":0,"o":"m 349 0 l 826 0 l 847 174 l 460 174 l 307 297 l 307 312 l 771 312 l 886 392 l 886 588 l 702 751 l 358 751 l 95 495 l 95 256 z m 198 1141 l 395 1141 l 518 963 l 641 1141 l 838 1141 l 652 885 l 384 885 z m 310 444 l 465 591 l 627 591 l 701 542 l 701 490 l 638 444 z "},"ê":{"ha":971,"x_min":0,"x_max":0,"o":"m 349 0 l 826 0 l 847 174 l 460 174 l 307 297 l 307 312 l 771 312 l 886 392 l 886 588 l 702 751 l 358 751 l 95 495 l 95 256 z m 198 885 l 395 885 l 518 1064 l 641 885 l 838 885 l 652 1141 l 384 1141 z m 310 444 l 465 591 l 627 591 l 701 542 l 701 490 l 638 444 z "},"ë":{"ha":971,"x_min":0,"x_max":0,"o":"m 351 0 l 828 0 l 849 174 l 463 174 l 309 297 l 309 312 l 773 312 l 888 392 l 888 588 l 704 751 l 360 751 l 97 495 l 97 256 z m 165 999 l 306 853 l 447 999 l 306 1144 z m 312 444 l 467 591 l 629 591 l 703 542 l 703 490 l 640 444 z m 593 999 l 734 853 l 875 999 l 734 1144 z "},"ė":{"ha":971,"x_min":0,"x_max":0,"o":"m 349 0 l 826 0 l 847 174 l 460 174 l 307 297 l 307 312 l 771 312 l 886 392 l 886 588 l 702 751 l 358 751 l 95 495 l 95 256 z m 310 444 l 465 591 l 627 591 l 701 542 l 701 490 l 638 444 z m 366 1001 l 518 855 l 669 1001 l 518 1146 z "},"ẹ":{"ha":971,"x_min":0,"x_max":0,"o":"m 349 0 l 826 0 l 847 174 l 460 174 l 307 297 l 307 312 l 771 312 l 886 392 l 886 588 l 702 751 l 358 751 l 95 495 l 95 256 z m 310 444 l 465 591 l 627 591 l 701 542 l 701 490 l 638 444 z m 380 -221 l 532 -367 l 683 -221 l 532 -76 z "},"è":{"ha":971,"x_min":0,"x_max":0,"o":"m 349 0 l 826 0 l 847 174 l 460 174 l 307 297 l 307 312 l 771 312 l 886 392 l 886 588 l 702 751 l 358 751 l 95 495 l 95 256 z m 234 1141 l 422 885 l 608 885 l 469 1141 z m 310 444 l 465 591 l 627 591 l 701 542 l 701 490 l 638 444 z "},"ē":{"ha":971,"x_min":0,"x_max":0,"o":"m 349 0 l 826 0 l 847 174 l 460 174 l 307 297 l 307 312 l 771 312 l 886 392 l 886 588 l 702 751 l 358 751 l 95 495 l 95 256 z m 247 902 l 789 902 l 789 1036 l 247 1036 z m 310 444 l 465 591 l 627 591 l 701 542 l 701 490 l 638 444 z "},"ę":{"ha":971,"x_min":0,"x_max":0,"o":"m 349 0 l 535 0 l 378 -97 l 378 -222 l 521 -308 l 652 -308 l 652 -167 l 578 -167 l 542 -146 l 542 -120 l 665 0 l 826 0 l 847 174 l 460 174 l 307 297 l 307 312 l 771 312 l 886 392 l 886 588 l 702 751 l 358 751 l 95 495 l 95 256 z m 310 444 l 465 591 l 627 591 l 701 542 l 701 490 l 638 444 z "},"ẽ":{"ha":971,"x_min":0,"x_max":0,"o":"m 349 0 l 826 0 l 847 174 l 460 174 l 307 297 l 307 312 l 771 312 l 886 392 l 886 588 l 702 751 l 358 751 l 95 495 l 95 256 z m 185 873 l 326 873 l 326 943 l 371 1007 l 423 1007 l 531 873 l 740 873 l 846 1000 l 846 1120 l 705 1120 l 705 1043 l 660 986 l 608 986 l 500 1120 l 291 1120 l 185 993 z m 310 444 l 465 591 l 627 591 l 701 542 l 701 490 l 638 444 z "},"ə":{"ha":971,"x_min":0,"x_max":0,"o":"m 622 751 l 144 751 l 124 577 l 510 577 l 664 455 l 664 440 l 200 440 l 85 359 l 85 163 l 269 0 l 613 0 l 876 256 l 876 495 z m 269 209 l 269 262 l 333 308 l 662 308 l 506 160 l 344 160 z "},"f":{"ha":971,"x_min":0,"x_max":0,"o":"m 336 -1 l 562 -1 l 562 483 l 895 483 l 895 662 l 562 662 l 562 742 l 645 833 l 921 833 l 900 1028 l 527 1028 l 336 807 l 336 662 l 101 662 l 101 483 l 336 483 z "},"g":{"ha":971,"x_min":0,"x_max":0,"o":"m 211 -278 l 691 -278 l 882 -56 l 882 751 l 776 751 l 776 752 l 363 752 l 80 525 l 80 265 l 362 67 l 653 129 l 653 9 l 569 -83 l 190 -83 z m 306 339 l 306 436 l 460 559 l 663 559 l 663 288 l 426 256 z "},"ğ":{"ha":971,"x_min":0,"x_max":0,"o":"m 211 -278 l 691 -278 l 882 -56 l 882 751 l 776 751 l 776 752 l 363 752 l 80 525 l 80 265 l 362 67 l 653 129 l 653 9 l 569 -83 l 190 -83 z m 207 1010 l 348 883 l 625 883 l 766 1010 l 766 1141 l 627 1141 l 627 1059 l 566 1000 l 407 1000 l 346 1059 l 346 1141 l 207 1141 z m 306 339 l 306 436 l 460 559 l 663 559 l 663 288 l 426 256 z "},"ǧ":{"ha":971,"x_min":0,"x_max":0,"o":"m 211 -278 l 691 -278 l 882 -56 l 882 751 l 776 751 l 776 752 l 363 752 l 80 525 l 80 265 l 362 67 l 653 129 l 653 9 l 569 -83 l 190 -83 z m 167 1141 l 364 1141 l 486 963 l 609 1141 l 806 1141 l 620 885 l 352 885 z m 306 339 l 306 436 l 460 559 l 663 559 l 663 288 l 426 256 z "},"ĝ":{"ha":971,"x_min":0,"x_max":0,"o":"m 211 -278 l 691 -278 l 882 -56 l 882 751 l 776 751 l 776 752 l 363 752 l 80 525 l 80 265 l 362 67 l 653 129 l 653 9 l 569 -83 l 190 -83 z m 167 885 l 364 885 l 486 1064 l 609 885 l 806 885 l 620 1141 l 352 1141 z m 306 339 l 306 436 l 460 559 l 663 559 l 663 288 l 426 256 z "},"ģ":{"ha":971,"x_min":0,"x_max":0,"o":"m 211 -278 l 691 -278 l 882 -56 l 882 751 l 776 751 l 776 752 l 363 752 l 80 525 l 80 265 l 362 67 l 653 129 l 653 9 l 569 -83 l 190 -83 z m 306 339 l 306 436 l 460 559 l 663 559 l 663 288 l 426 256 z m 368 856 l 606 856 l 606 1094 l 481 1094 l 606 1252 l 519 1297 l 368 1101 z "},"ġ":{"ha":971,"x_min":0,"x_max":0,"o":"m 211 -278 l 691 -278 l 882 -56 l 882 751 l 776 751 l 776 752 l 363 752 l 80 525 l 80 265 l 362 67 l 653 129 l 653 9 l 569 -83 l 190 -83 z m 306 339 l 306 436 l 460 559 l 663 559 l 663 288 l 426 256 z m 335 1001 l 487 855 l 638 1001 l 487 1146 z "},"h":{"ha":971,"x_min":0,"x_max":0,"o":"m 661 0 l 887 0 l 888 567 l 656 768 l 308 674 l 308 1063 l 82 1021 l 82 0 l 308 0 l 308 535 l 569 572 l 661 514 z "},"ħ":{"ha":971,"x_min":0,"x_max":0,"o":"m 22 827 l 78 827 l 78 0 l 303 0 l 303 465 l 565 502 l 657 444 l 657 0 l 884 0 l 884 497 l 651 699 l 303 605 l 303 827 l 640 827 l 640 938 l 303 938 l 303 1063 l 78 1021 l 78 938 l 22 938 z "},"ĥ":{"ha":971,"x_min":0,"x_max":0,"o":"m 663 0 l 888 0 l 890 567 l 657 768 l 309 674 l 309 1063 l 83 1021 l 83 0 l 309 0 l 309 535 l 571 572 l 663 514 z m -98 1174 l 110 1174 l 215 1305 l 320 1174 l 528 1174 l 349 1363 l 81 1363 z "},"i":{"ha":971,"x_min":0,"x_max":0,"o":"m 447 0 l 672 0 l 672 602 l 544 751 l 133 751 l 112 542 l 447 542 z m 378 1001 l 531 855 l 682 1001 l 531 1146 z "},"ı":{"ha":971,"x_min":0,"x_max":0,"o":"m 447 0 l 672 0 l 672 602 l 544 751 l 132 751 l 111 542 l 447 542 z "},"í":{"ha":971,"x_min":0,"x_max":0,"o":"m 439 0 l 665 0 l 665 602 l 536 751 l 125 751 l 104 542 l 439 542 z m 331 885 l 470 1141 l 706 1141 l 518 885 z "},"ĭ":{"ha":971,"x_min":0,"x_max":0,"o":"m 436 0 l 662 0 l 662 602 l 533 751 l 122 751 l 101 542 l 436 542 z m 139 1010 l 280 883 l 557 883 l 698 1010 l 698 1141 l 559 1141 l 559 1059 l 498 1000 l 339 1000 l 278 1059 l 278 1141 l 139 1141 z "},"î":{"ha":971,"x_min":0,"x_max":0,"o":"m 433 0 l 658 0 l 658 602 l 530 751 l 119 751 l 98 542 l 433 542 z m 95 885 l 292 885 l 415 1064 l 538 885 l 735 885 l 549 1141 l 281 1141 z "},"ï":{"ha":971,"x_min":0,"x_max":0,"o":"m 426 0 l 651 0 l 651 602 l 523 751 l 111 751 l 90 542 l 426 542 z m 53 999 l 194 853 l 334 999 l 194 1144 z m 481 999 l 622 853 l 763 999 l 622 1144 z "},"ị":{"ha":971,"x_min":0,"x_max":0,"o":"m 449 0 l 675 0 l 675 602 l 547 751 l 135 751 l 114 542 l 449 542 z m 381 1001 l 533 855 l 684 1001 l 533 1146 z m 413 -221 l 565 -367 l 716 -221 l 565 -76 z "},"ì":{"ha":971,"x_min":0,"x_max":0,"o":"m 447 0 l 672 0 l 672 602 l 544 751 l 132 751 l 111 542 l 447 542 z m 145 1141 l 333 885 l 519 885 l 381 1141 z "},"ĳ":{"ha":971,"x_min":0,"x_max":0,"o":"m 188 0 l 393 0 l 393 602 l 265 751 l 47 751 l 26 542 l 188 542 z m 99 1001 l 251 855 l 402 1001 l 251 1146 z m 322 -69 l 342 -278 l 667 -278 l 858 -56 l 858 602 l 729 751 l 498 751 l 477 542 l 653 542 l 653 23 l 569 -69 z m 563 1001 l 715 855 l 867 1001 l 715 1146 z "},"ī":{"ha":971,"x_min":0,"x_max":0,"o":"m 438 0 l 663 0 l 663 602 l 535 751 l 123 751 l 102 542 l 438 542 z m 149 902 l 690 902 l 690 1036 l 149 1036 z "},"į":{"ha":971,"x_min":0,"x_max":0,"o":"m 447 0 l 542 0 l 385 -97 l 385 -222 l 528 -308 l 659 -308 l 659 -167 l 585 -167 l 549 -146 l 549 -120 l 672 0 l 672 602 l 544 751 l 132 751 l 111 542 l 447 542 z m 277 1001 l 429 855 l 581 1001 l 429 1146 z "},"j":{"ha":971,"x_min":0,"x_max":0,"o":"m 121 -278 l 515 -278 l 706 -56 l 706 602 l 577 751 l 151 751 l 131 542 l 480 542 l 480 23 l 397 -69 l 100 -69 z m 411 1001 l 563 855 l 715 1001 l 563 1146 z "},"ȷ":{"ha":971,"x_min":0,"x_max":0,"o":"m 120 -278 l 514 -278 l 705 -56 l 705 602 l 576 751 l 151 751 l 130 542 l 479 542 l 479 23 l 396 -69 l 99 -69 z "},"ĵ":{"ha":971,"x_min":0,"x_max":0,"o":"m 115 -278 l 508 -278 l 699 -56 l 699 602 l 571 751 l 145 751 l 124 542 l 474 542 l 474 23 l 390 -69 l 94 -69 z m 129 885 l 326 885 l 449 1064 l 572 885 l 769 885 l 583 1141 l 315 1141 z "},"k":{"ha":971,"x_min":0,"x_max":0,"o":"m 649 0 l 896 0 l 896 149 l 607 415 l 911 751 l 671 751 l 433 481 l 331 481 l 331 1063 l 103 1021 l 103 0 l 331 0 l 331 306 l 425 306 l 649 110 z "},"ķ":{"ha":971,"x_min":0,"x_max":0,"o":"m 649 0 l 896 0 l 896 149 l 607 415 l 911 751 l 671 751 l 433 481 l 331 481 l 331 1063 l 103 1021 l 103 0 l 331 0 l 331 306 l 425 306 l 649 110 z m 383 -501 l 469 -546 l 621 -350 l 621 -105 l 383 -105 l 383 -343 l 508 -343 z "},"ĸ":{"ha":971,"x_min":0,"x_max":0,"o":"m 649 0 l 896 0 l 896 149 l 607 415 l 911 751 l 671 751 l 433 481 l 331 481 l 331 751 l 103 751 l 103 0 l 331 0 l 331 306 l 425 306 l 649 110 z "},"l":{"ha":971,"x_min":0,"x_max":0,"o":"m 508 -1 l 852 -1 l 873 208 l 626 208 l 537 300 l 537 913 l 408 1063 l 65 1063 l 44 853 l 311 853 l 311 221 z "},"ĺ":{"ha":971,"x_min":0,"x_max":0,"o":"m 508 -1 l 852 -1 l 873 208 l 626 208 l 537 300 l 537 913 l 408 1063 l 65 1063 l 44 853 l 311 853 l 311 221 z m 320 1173 l 459 1367 l 694 1367 l 507 1173 z "},"ľ":{"ha":971,"x_min":0,"x_max":0,"o":"m 511 -1 l 856 -1 l 876 208 l 628 208 l 540 300 l 540 913 l 412 1063 l 67 1063 l 47 853 l 315 853 l 315 221 z m 664 911 l 842 911 l 871 1186 l 676 1186 z "},"ļ":{"ha":971,"x_min":0,"x_max":0,"o":"m 508 -1 l 852 -1 l 873 208 l 626 208 l 537 300 l 537 913 l 408 1063 l 65 1063 l 44 853 l 311 853 l 311 221 z m 350 -501 l 437 -546 l 588 -350 l 588 -105 l 350 -105 l 350 -343 l 476 -343 z "},"ŀ":{"ha":971,"x_min":0,"x_max":0,"o":"m 506 -1 l 851 -1 l 872 208 l 624 208 l 535 300 l 535 913 l 407 1063 l 63 1063 l 42 853 l 310 853 l 310 221 z m 719 588 l 871 442 l 1022 588 l 871 733 z "},"ł":{"ha":971,"x_min":0,"x_max":0,"o":"m 146 365 l 311 442 l 311 221 l 508 -1 l 852 -1 l 873 208 l 626 208 l 537 300 l 537 547 l 793 666 l 793 858 l 537 738 l 537 913 l 408 1063 l 65 1063 l 44 853 l 311 853 l 311 633 l 146 556 z "},"m":{"ha":971,"x_min":0,"x_max":0,"o":"m 699 0 l 889 0 l 889 644 l 756 768 l 555 663 l 442 768 l 257 671 l 222 751 l 82 751 l 82 0 l 272 0 l 272 545 l 337 572 l 390 536 l 390 0 l 576 0 l 576 542 l 650 572 l 699 536 z "},"n":{"ha":971,"x_min":0,"x_max":0,"o":"m 662 0 l 888 0 l 888 567 l 656 768 l 290 669 l 253 751 l 83 751 l 83 0 l 308 0 l 308 535 l 570 572 l 662 514 z "},"ń":{"ha":971,"x_min":0,"x_max":0,"o":"m 662 0 l 888 0 l 888 567 l 656 768 l 290 669 l 253 751 l 83 751 l 83 0 l 308 0 l 308 535 l 570 572 l 662 514 z m 394 885 l 533 1141 l 769 1141 l 581 885 z "},"ň":{"ha":971,"x_min":0,"x_max":0,"o":"m 662 0 l 888 0 l 888 567 l 656 768 l 290 669 l 253 751 l 83 751 l 83 0 l 308 0 l 308 535 l 570 572 l 662 514 z m 165 1141 l 363 1141 l 485 963 l 608 1141 l 805 1141 l 619 885 l 351 885 z "},"ņ":{"ha":971,"x_min":0,"x_max":0,"o":"m 662 0 l 888 0 l 888 567 l 656 768 l 290 669 l 253 751 l 83 751 l 83 0 l 308 0 l 308 535 l 570 572 l 662 514 z m 366 -501 l 453 -546 l 604 -350 l 604 -105 l 366 -105 l 366 -343 l 492 -343 z "},"ɲ":{"ha":971,"x_min":0,"x_max":0,"o":"m 306 -119 l 306 535 l 568 572 l 660 514 l 660 0 l 885 0 l 885 567 l 654 768 l 288 669 l 251 751 l 81 751 l 81 -40 l 53 -69 l -46 -69 l -25 -278 l 171 -278 z "},"ñ":{"ha":971,"x_min":0,"x_max":0,"o":"m 662 0 l 888 0 l 888 567 l 656 768 l 290 669 l 253 751 l 83 751 l 83 0 l 308 0 l 308 535 l 570 572 l 662 514 z m 151 873 l 292 873 l 292 943 l 338 1007 l 390 1007 l 497 873 l 706 873 l 813 1000 l 813 1120 l 672 1120 l 672 1043 l 626 986 l 574 986 l 467 1120 l 258 1120 l 151 993 z "},"ŋ":{"ha":971,"x_min":0,"x_max":0,"o":"m 888 -119 l 888 567 l 656 768 l 290 669 l 253 751 l 83 751 l 83 0 l 308 0 l 308 535 l 570 572 l 662 514 l 662 -40 l 634 -69 l 517 -69 l 538 -278 l 752 -278 z "},"o":{"ha":971,"x_min":0,"x_max":0,"o":"m 346 0 l 625 0 l 898 259 l 898 493 l 627 751 l 346 751 l 73 493 l 73 259 z m 285 323 l 285 428 l 433 556 l 538 556 l 686 428 l 686 323 l 538 195 l 433 195 z "},"ó":{"ha":971,"x_min":0,"x_max":0,"o":"m 346 0 l 625 0 l 898 259 l 898 493 l 627 751 l 346 751 l 73 493 l 73 259 z m 285 323 l 285 428 l 433 556 l 538 556 l 686 428 l 686 323 l 538 195 l 433 195 z m 395 885 l 534 1141 l 769 1141 l 582 885 z "},"ŏ":{"ha":971,"x_min":0,"x_max":0,"o":"m 346 0 l 625 0 l 898 259 l 898 493 l 627 751 l 346 751 l 73 493 l 73 259 z m 206 1010 l 347 883 l 624 883 l 765 1010 l 765 1141 l 626 1141 l 626 1059 l 565 1000 l 406 1000 l 345 1059 l 345 1141 l 206 1141 z m 285 323 l 285 428 l 433 556 l 538 556 l 686 428 l 686 323 l 538 195 l 433 195 z "},"ô":{"ha":971,"x_min":0,"x_max":0,"o":"m 346 0 l 625 0 l 898 259 l 898 493 l 627 751 l 346 751 l 73 493 l 73 259 z m 165 885 l 363 885 l 485 1064 l 608 885 l 806 885 l 619 1141 l 351 1141 z m 285 323 l 285 428 l 433 556 l 538 556 l 686 428 l 686 323 l 538 195 l 433 195 z "},"ö":{"ha":971,"x_min":0,"x_max":0,"o":"m 346 0 l 625 0 l 898 259 l 898 493 l 627 751 l 346 751 l 73 493 l 73 259 z m 130 999 l 271 853 l 412 999 l 271 1144 z m 285 323 l 285 428 l 433 556 l 538 556 l 686 428 l 686 323 l 538 195 l 433 195 z m 558 999 l 699 853 l 840 999 l 699 1144 z "},"ọ":{"ha":971,"x_min":0,"x_max":0,"o":"m 346 0 l 625 0 l 898 259 l 898 493 l 627 751 l 346 751 l 73 493 l 73 259 z m 285 323 l 285 428 l 433 556 l 538 556 l 686 428 l 686 323 l 538 195 l 433 195 z m 333 -221 l 485 -367 l 637 -221 l 485 -76 z "},"ò":{"ha":971,"x_min":0,"x_max":0,"o":"m 346 0 l 625 0 l 898 259 l 898 493 l 627 751 l 346 751 l 73 493 l 73 259 z m 201 1141 l 389 885 l 576 885 l 437 1141 z m 285 323 l 285 428 l 433 556 l 538 556 l 686 428 l 686 323 l 538 195 l 433 195 z "},"ő":{"ha":971,"x_min":0,"x_max":0,"o":"m 346 0 l 625 0 l 898 259 l 898 493 l 627 751 l 346 751 l 73 493 l 73 259 z m 285 323 l 285 428 l 433 556 l 538 556 l 686 428 l 686 323 l 538 195 l 433 195 z m 385 885 l 579 885 l 709 1141 l 486 1141 z "},"ō":{"ha":971,"x_min":0,"x_max":0,"o":"m 346 0 l 625 0 l 898 259 l 898 493 l 627 751 l 346 751 l 73 493 l 73 259 z m 215 902 l 756 902 l 756 1036 l 215 1036 z m 285 323 l 285 428 l 433 556 l 538 556 l 686 428 l 686 323 l 538 195 l 433 195 z "},"ǫ":{"ha":971,"x_min":0,"x_max":0,"o":"m 346 0 l 494 0 l 338 -97 l 338 -222 l 481 -308 l 612 -308 l 612 -167 l 538 -167 l 501 -146 l 501 -120 l 625 0 l 898 259 l 898 493 l 627 751 l 346 751 l 73 493 l 73 259 z m 285 323 l 285 428 l 433 556 l 538 556 l 686 428 l 686 323 l 538 195 l 433 195 z "},"ø":{"ha":971,"x_min":0,"x_max":0,"o":"m 72 -110 l 223 52 l 277 1 l 557 1 l 829 260 l 829 494 l 724 594 l 874 756 l 752 858 l 608 705 l 559 752 l 277 752 l 5 494 l 5 260 l 108 161 l -48 -9 z m 217 324 l 217 429 l 365 557 l 469 557 l 486 542 l 255 290 z m 345 213 l 576 465 l 617 429 l 617 324 l 469 196 l 365 196 z "},"ǿ":{"ha":971,"x_min":0,"x_max":0,"o":"m 72 -110 l 223 52 l 277 1 l 557 1 l 829 260 l 829 494 l 724 594 l 874 756 l 752 858 l 608 705 l 559 752 l 277 752 l 5 494 l 5 260 l 108 161 l -48 -9 z m 217 324 l 217 429 l 365 557 l 469 557 l 486 542 l 255 290 z m 326 886 l 465 1142 l 701 1142 l 513 886 z m 345 213 l 576 465 l 617 429 l 617 324 l 469 196 l 365 196 z "},"õ":{"ha":971,"x_min":0,"x_max":0,"o":"m 346 0 l 625 0 l 898 259 l 898 493 l 627 751 l 346 751 l 73 493 l 73 259 z m 152 873 l 293 873 l 293 943 l 338 1007 l 390 1007 l 498 873 l 707 873 l 813 1000 l 813 1120 l 672 1120 l 672 1043 l 627 986 l 575 986 l 467 1120 l 258 1120 l 152 993 z m 285 323 l 285 428 l 433 556 l 538 556 l 686 428 l 686 323 l 538 195 l 433 195 z "},"œ":{"ha":971,"x_min":0,"x_max":0,"o":"m 590 751 l 485 605 l 383 751 l 213 751 l 49 495 l 49 256 l 213 0 l 383 0 l 461 112 l 604 0 l 872 0 l 893 153 l 667 153 l 563 238 l 563 315 l 835 315 l 922 395 l 922 640 l 783 751 z m 203 315 l 203 437 l 272 556 l 345 556 l 410 437 l 410 315 l 345 195 l 272 195 z m 563 447 l 563 458 l 656 591 l 746 591 l 781 565 l 781 484 l 743 447 z "},"p":{"ha":971,"x_min":0,"x_max":0,"o":"m 81 -278 l 310 -236 l 310 0 l 615 0 l 898 229 l 898 547 l 635 768 l 281 667 l 232 751 l 81 751 z m 300 183 l 300 521 l 565 559 l 672 491 l 672 305 l 517 183 z "},"þ":{"ha":971,"x_min":0,"x_max":0,"o":"m 105 -250 l 327 -250 l 327 0 l 613 0 l 896 229 l 896 547 l 633 768 l 327 681 l 327 1063 l 105 1063 z m 327 183 l 327 525 l 563 559 l 669 491 l 669 305 l 515 183 z "},"q":{"ha":971,"x_min":0,"x_max":0,"o":"m 660 -278 l 890 -236 l 890 751 l 356 751 l 73 522 l 73 204 l 335 -17 l 660 76 z m 299 261 l 299 447 l 453 569 l 671 569 l 671 231 l 406 192 z "},"r":{"ha":971,"x_min":0,"x_max":0,"o":"m 678 406 l 901 438 l 901 591 l 674 768 l 308 647 l 258 751 l 88 751 l 88 0 l 313 0 l 313 527 l 595 565 l 678 515 z "},"ŕ":{"ha":971,"x_min":0,"x_max":0,"o":"m 678 406 l 901 438 l 901 591 l 674 768 l 308 647 l 258 751 l 88 751 l 88 0 l 313 0 l 313 527 l 595 565 l 678 515 z m 399 885 l 538 1141 l 774 1141 l 586 885 z "},"ř":{"ha":971,"x_min":0,"x_max":0,"o":"m 678 406 l 901 438 l 901 591 l 674 768 l 308 647 l 258 751 l 88 751 l 88 0 l 313 0 l 313 527 l 595 565 l 678 515 z m 169 1141 l 367 1141 l 490 963 l 613 1141 l 810 1141 l 624 885 l 356 885 z "},"ŗ":{"ha":971,"x_min":0,"x_max":0,"o":"m 677 406 l 901 438 l 901 591 l 673 768 l 307 647 l 257 751 l 87 751 l 87 0 l 313 0 l 313 527 l 594 565 l 677 515 z m 81 -501 l 167 -546 l 319 -350 l 319 -105 l 81 -105 l 81 -343 l 206 -343 z "},"s":{"ha":971,"x_min":0,"x_max":0,"o":"m 135 0 l 717 0 l 842 164 l 842 290 l 372 544 l 372 571 l 401 588 l 852 588 l 831 751 l 253 751 l 128 588 l 128 465 l 602 211 l 602 181 l 572 164 l 114 164 z "},"ś":{"ha":971,"x_min":0,"x_max":0,"o":"m 135 0 l 717 0 l 842 164 l 842 290 l 372 544 l 372 571 l 401 588 l 852 588 l 831 751 l 253 751 l 128 588 l 128 465 l 602 211 l 602 181 l 572 164 l 114 164 z m 399 885 l 538 1141 l 774 1141 l 586 885 z "},"š":{"ha":971,"x_min":0,"x_max":0,"o":"m 135 0 l 717 0 l 842 164 l 842 290 l 372 544 l 372 571 l 401 588 l 852 588 l 831 751 l 253 751 l 128 588 l 128 465 l 602 211 l 602 181 l 572 164 l 114 164 z m 169 1141 l 367 1141 l 490 963 l 613 1141 l 810 1141 l 624 885 l 356 885 z "},"ş":{"ha":971,"x_min":0,"x_max":0,"o":"m 135 0 l 426 0 l 426 -212 l 485 -212 l 556 -253 l 556 -287 l 485 -329 l 398 -329 l 398 -460 l 533 -460 l 680 -350 l 680 -191 l 551 -107 l 551 0 l 717 0 l 842 164 l 842 290 l 372 544 l 372 571 l 401 588 l 852 588 l 831 751 l 253 751 l 128 588 l 128 465 l 602 211 l 602 181 l 572 164 l 114 164 z "},"ŝ":{"ha":971,"x_min":0,"x_max":0,"o":"m 135 0 l 717 0 l 842 164 l 842 290 l 372 544 l 372 571 l 401 588 l 852 588 l 831 751 l 253 751 l 128 588 l 128 465 l 602 211 l 602 181 l 572 164 l 114 164 z m 169 885 l 367 885 l 490 1064 l 613 885 l 810 885 l 624 1141 l 356 1141 z "},"ș":{"ha":971,"x_min":0,"x_max":0,"o":"m 135 0 l 717 0 l 842 164 l 842 290 l 372 544 l 372 571 l 401 588 l 852 588 l 831 751 l 253 751 l 128 588 l 128 465 l 602 211 l 602 181 l 572 164 l 114 164 z m 370 -501 l 457 -546 l 608 -350 l 608 -105 l 370 -105 l 370 -343 l 496 -343 z "},"ß":{"ha":971,"x_min":0,"x_max":0,"o":"m 682 1063 l 326 1063 l 101 818 l 101 0 l 334 0 l 334 756 l 425 867 l 593 867 l 688 774 l 688 707 l 565 599 l 465 599 l 465 432 l 565 432 l 688 333 l 688 267 l 572 167 l 465 167 l 465 0 l 672 0 l 913 194 l 913 406 l 736 529 l 878 628 l 878 856 z "},"t":{"ha":971,"x_min":0,"x_max":0,"o":"m 435 -1 l 840 -1 l 840 194 l 553 194 l 470 300 l 470 483 l 840 483 l 840 662 l 470 662 l 470 931 l 244 890 l 244 662 l 63 662 l 63 483 l 244 483 l 244 221 z "},"ŧ":{"ha":971,"x_min":0,"x_max":0,"o":"m 85 365 l 253 365 l 253 221 l 444 -1 l 848 -1 l 848 194 l 562 194 l 478 300 l 478 365 l 848 365 l 848 504 l 478 504 l 478 635 l 848 635 l 848 774 l 478 774 l 478 931 l 253 890 l 253 774 l 85 774 l 85 635 l 253 635 l 253 504 l 85 504 z "},"ť":{"ha":971,"x_min":0,"x_max":0,"o":"m 444 -1 l 849 -1 l 849 194 l 563 194 l 479 300 l 479 483 l 849 483 l 849 662 l 479 662 l 479 931 l 253 890 l 253 662 l 72 662 l 72 483 l 253 483 l 253 221 z m 752 863 l 931 863 l 959 1138 l 764 1138 z "},"ţ":{"ha":971,"x_min":0,"x_max":0,"o":"m 435 -1 l 490 -1 l 490 -212 l 550 -212 l 621 -253 l 621 -287 l 550 -329 l 463 -329 l 463 -460 l 597 -460 l 744 -350 l 744 -191 l 615 -107 l 615 -1 l 840 -1 l 840 194 l 553 194 l 470 300 l 470 483 l 840 483 l 840 662 l 470 662 l 470 931 l 244 890 l 244 662 l 63 662 l 63 483 l 244 483 l 244 221 z "},"ț":{"ha":971,"x_min":0,"x_max":0,"o":"m 435 -1 l 840 -1 l 840 194 l 553 194 l 470 300 l 470 483 l 840 483 l 840 662 l 470 662 l 470 931 l 244 890 l 244 662 l 63 662 l 63 483 l 244 483 l 244 221 z m 435 -501 l 522 -546 l 673 -350 l 673 -105 l 435 -105 l 435 -343 l 560 -343 z "},"u":{"ha":971,"x_min":0,"x_max":0,"o":"m 308 751 l 83 751 l 83 185 l 314 -17 l 681 82 l 717 0 l 888 0 l 888 751 l 662 751 l 662 217 l 400 180 l 308 238 z "},"ú":{"ha":971,"x_min":0,"x_max":0,"o":"m 308 751 l 83 751 l 83 185 l 314 -17 l 681 82 l 717 0 l 888 0 l 888 751 l 662 751 l 662 217 l 400 180 l 308 238 z m 395 885 l 534 1141 l 769 1141 l 582 885 z "},"ŭ":{"ha":971,"x_min":0,"x_max":0,"o":"m 308 751 l 83 751 l 83 185 l 314 -17 l 681 82 l 717 0 l 888 0 l 888 751 l 662 751 l 662 217 l 400 180 l 308 238 z m 206 1010 l 347 883 l 624 883 l 765 1010 l 765 1141 l 626 1141 l 626 1059 l 565 1000 l 406 1000 l 345 1059 l 345 1141 l 206 1141 z "},"û":{"ha":971,"x_min":0,"x_max":0,"o":"m 308 751 l 83 751 l 83 185 l 314 -17 l 681 82 l 717 0 l 888 0 l 888 751 l 662 751 l 662 217 l 400 180 l 308 238 z m 165 885 l 363 885 l 485 1064 l 608 885 l 806 885 l 619 1141 l 351 1141 z "},"ü":{"ha":971,"x_min":0,"x_max":0,"o":"m 308 751 l 83 751 l 83 185 l 314 -17 l 681 82 l 717 0 l 888 0 l 888 751 l 662 751 l 662 217 l 400 180 l 308 238 z m 130 999 l 271 853 l 412 999 l 271 1144 z m 558 999 l 699 853 l 840 999 l 699 1144 z "},"ụ":{"ha":971,"x_min":0,"x_max":0,"o":"m 308 751 l 83 751 l 83 185 l 314 -17 l 681 82 l 717 0 l 888 0 l 888 751 l 662 751 l 662 217 l 400 180 l 308 238 z m 333 -221 l 485 -367 l 637 -221 l 485 -76 z "},"ù":{"ha":971,"x_min":0,"x_max":0,"o":"m 308 751 l 83 751 l 83 185 l 314 -17 l 681 82 l 717 0 l 888 0 l 888 751 l 662 751 l 662 217 l 400 180 l 308 238 z m 201 1141 l 389 885 l 576 885 l 437 1141 z "},"ű":{"ha":971,"x_min":0,"x_max":0,"o":"m 308 751 l 83 751 l 83 185 l 314 -17 l 681 82 l 717 0 l 888 0 l 888 751 l 662 751 l 662 217 l 400 180 l 308 238 z m 385 885 l 579 885 l 709 1141 l 486 1141 z "},"ū":{"ha":971,"x_min":0,"x_max":0,"o":"m 308 751 l 83 751 l 83 185 l 314 -17 l 681 82 l 717 0 l 888 0 l 888 751 l 662 751 l 662 217 l 400 180 l 308 238 z m 215 902 l 756 902 l 756 1036 l 215 1036 z "},"ų":{"ha":971,"x_min":0,"x_max":0,"o":"m 308 751 l 83 751 l 83 185 l 314 -17 l 681 82 l 717 0 l 757 0 l 601 -97 l 601 -222 l 743 -308 l 874 -308 l 874 -167 l 800 -167 l 764 -146 l 764 -120 l 888 0 l 888 751 l 662 751 l 662 217 l 400 180 l 308 238 z "},"ů":{"ha":971,"x_min":0,"x_max":0,"o":"m 308 751 l 83 751 l 83 185 l 314 -17 l 681 82 l 717 0 l 888 0 l 888 751 l 662 751 l 662 217 l 400 180 l 308 238 z m 314 956 l 425 840 l 546 840 l 657 956 l 657 1074 l 546 1190 l 425 1190 l 314 1074 z m 401 992 l 401 1039 l 463 1106 l 508 1106 l 570 1039 l 570 992 l 508 924 l 463 924 z "},"ũ":{"ha":971,"x_min":0,"x_max":0,"o":"m 308 751 l 83 751 l 83 185 l 314 -17 l 681 82 l 717 0 l 888 0 l 888 751 l 662 751 l 662 217 l 400 180 l 308 238 z m 152 873 l 293 873 l 293 943 l 338 1007 l 390 1007 l 498 873 l 707 873 l 813 1000 l 813 1120 l 672 1120 l 672 1043 l 627 986 l 575 986 l 467 1120 l 258 1120 l 152 993 z "},"v":{"ha":971,"x_min":0,"x_max":0,"o":"m 371 0 l 600 0 l 883 444 l 883 751 l 661 751 l 661 485 l 488 174 l 313 485 l 313 751 l 87 751 l 87 444 z "},"w":{"ha":971,"x_min":0,"x_max":0,"o":"m 245 0 l 404 0 l 485 259 l 567 0 l 726 0 l 868 423 l 868 751 l 683 751 l 683 460 l 622 201 l 547 460 l 547 560 l 424 560 l 424 460 l 351 201 l 288 460 l 288 751 l 103 751 l 103 423 z "},"ẃ":{"ha":971,"x_min":0,"x_max":0,"o":"m 245 0 l 404 0 l 485 259 l 567 0 l 726 0 l 868 423 l 868 751 l 683 751 l 683 460 l 622 201 l 547 460 l 547 560 l 424 560 l 424 460 l 351 201 l 288 460 l 288 751 l 103 751 l 103 423 z m 395 885 l 534 1141 l 769 1141 l 582 885 z "},"ŵ":{"ha":971,"x_min":0,"x_max":0,"o":"m 245 0 l 404 0 l 485 259 l 567 0 l 726 0 l 868 423 l 868 751 l 683 751 l 683 460 l 622 201 l 547 460 l 547 560 l 424 560 l 424 460 l 351 201 l 288 460 l 288 751 l 103 751 l 103 423 z m 165 885 l 363 885 l 485 1064 l 608 885 l 806 885 l 619 1141 l 351 1141 z "},"ẅ":{"ha":971,"x_min":0,"x_max":0,"o":"m 245 0 l 404 0 l 485 259 l 567 0 l 726 0 l 868 423 l 868 751 l 683 751 l 683 460 l 622 201 l 547 460 l 547 560 l 424 560 l 424 460 l 351 201 l 288 460 l 288 751 l 103 751 l 103 423 z m 130 999 l 271 853 l 412 999 l 271 1144 z m 558 999 l 699 853 l 840 999 l 699 1144 z "},"ẁ":{"ha":971,"x_min":0,"x_max":0,"o":"m 245 0 l 404 0 l 485 259 l 567 0 l 726 0 l 868 423 l 868 751 l 683 751 l 683 460 l 622 201 l 547 460 l 547 560 l 424 560 l 424 460 l 351 201 l 288 460 l 288 751 l 103 751 l 103 423 z m 201 1141 l 389 885 l 576 885 l 437 1141 z "},"x":{"ha":971,"x_min":0,"x_max":0,"o":"m 643 0 l 869 0 l 869 149 l 648 352 l 869 602 l 869 751 l 671 751 l 671 644 l 522 467 l 328 647 l 328 751 l 102 751 l 102 602 l 323 399 l 102 149 l 102 0 l 300 0 l 300 108 l 449 284 l 643 106 z "},"y":{"ha":971,"x_min":0,"x_max":0,"o":"m 224 -278 l 663 -278 l 882 -56 l 882 751 l 656 751 l 656 312 l 397 275 l 315 330 l 315 751 l 88 751 l 88 278 l 308 78 l 656 172 l 656 16 l 541 -76 l 189 -76 z "},"ý":{"ha":971,"x_min":0,"x_max":0,"o":"m 224 -278 l 663 -278 l 882 -56 l 882 751 l 656 751 l 656 312 l 397 275 l 315 330 l 315 751 l 88 751 l 88 278 l 308 78 l 656 172 l 656 16 l 541 -76 l 189 -76 z m 390 885 l 528 1141 l 764 1141 l 576 885 z "},"ŷ":{"ha":971,"x_min":0,"x_max":0,"o":"m 224 -278 l 663 -278 l 882 -56 l 882 751 l 656 751 l 656 312 l 397 275 l 315 330 l 315 751 l 88 751 l 88 278 l 308 78 l 656 172 l 656 16 l 541 -76 l 189 -76 z m 160 885 l 357 885 l 480 1064 l 603 885 l 800 885 l 614 1141 l 346 1141 z "},"ÿ":{"ha":971,"x_min":0,"x_max":0,"o":"m 224 -278 l 663 -278 l 882 -56 l 882 751 l 656 751 l 656 312 l 397 275 l 315 330 l 315 751 l 88 751 l 88 278 l 308 78 l 656 172 l 656 16 l 541 -76 l 189 -76 z m 124 999 l 265 853 l 406 999 l 265 1144 z m 553 999 l 694 853 l 835 999 l 694 1144 z "},"ỳ":{"ha":971,"x_min":0,"x_max":0,"o":"m 224 -278 l 663 -278 l 882 -56 l 882 751 l 656 751 l 656 312 l 397 275 l 315 330 l 315 751 l 88 751 l 88 278 l 308 78 l 656 172 l 656 16 l 541 -76 l 189 -76 z m 196 1141 l 383 885 l 570 885 l 431 1141 z "},"ȳ":{"ha":971,"x_min":0,"x_max":0,"o":"m 224 -278 l 663 -278 l 882 -56 l 882 751 l 656 751 l 656 312 l 397 275 l 315 330 l 315 751 l 88 751 l 88 278 l 308 78 l 656 172 l 656 16 l 541 -76 l 189 -76 z m 209 902 l 751 902 l 751 1036 l 209 1036 z "},"ỹ":{"ha":971,"x_min":0,"x_max":0,"o":"m 224 -278 l 663 -278 l 882 -56 l 882 751 l 656 751 l 656 312 l 397 275 l 315 330 l 315 751 l 88 751 l 88 278 l 308 78 l 656 172 l 656 16 l 541 -76 l 189 -76 z m 147 873 l 288 873 l 288 943 l 333 1007 l 385 1007 l 492 873 l 701 873 l 808 1000 l 808 1120 l 667 1120 l 667 1043 l 622 986 l 569 986 l 462 1120 l 253 1120 l 147 993 z "},"z":{"ha":971,"x_min":0,"x_max":0,"o":"m 151 0 l 855 0 l 876 185 l 407 185 l 846 602 l 790 752 l 112 751 l 91 567 l 549 567 l 96 158 z "},"ź":{"ha":971,"x_min":0,"x_max":0,"o":"m 151 0 l 855 0 l 876 185 l 407 185 l 846 602 l 790 752 l 112 751 l 91 567 l 549 567 l 96 158 z m 398 885 l 537 1141 l 772 1141 l 585 885 z "},"ž":{"ha":971,"x_min":0,"x_max":0,"o":"m 151 0 l 855 0 l 876 185 l 407 185 l 846 602 l 790 752 l 112 751 l 91 567 l 549 567 l 96 158 z m 169 1141 l 366 1141 l 488 963 l 611 1141 l 808 1141 l 622 885 l 354 885 z "},"ż":{"ha":971,"x_min":0,"x_max":0,"o":"m 151 0 l 855 0 l 876 185 l 407 185 l 846 602 l 790 752 l 112 751 l 91 567 l 549 567 l 96 158 z m 337 1001 l 489 855 l 640 1001 l 489 1146 z "},"ª":{"ha":971,"x_min":0,"x_max":0,"o":"m 415 1072 b 219 946 266 1072 219 1018 l 219 926 l 341 926 l 341 940 b 407 981 341 960 357 981 b 478 933 440 981 478 967 l 478 879 b 206 747 372 882 206 866 b 340 633 206 678 262 633 b 474 690 383 633 439 648 l 489 690 b 577 633 494 658 515 633 b 655 643 600 633 627 637 l 655 742 b 619 772 623 742 619 749 l 619 933 b 415 1072 619 1035 540 1072 z m 353 767 b 438 811 353 790 374 811 b 478 809 453 811 466 810 l 478 747 b 405 730 454 737 426 730 b 353 767 373 730 353 745 z "},"º":{"ha":971,"x_min":0,"x_max":0,"o":"m 662 849 b 431 1072 662 1006 556 1072 b 198 849 305 1072 198 1006 b 431 633 198 690 305 633 b 662 849 556 633 662 690 z m 337 850 b 431 967 337 940 380 967 b 523 850 481 967 523 939 b 431 738 523 761 480 738 b 337 850 380 738 337 761 z "},"⁄":{"ha":971,"x_min":0,"x_max":0,"o":"m 731 811 l 158 294 l 244 202 l 816 719 z "},"½":{"ha":971,"x_min":0,"x_max":0,"o":"m 88 969 l 88 854 b 185 891 122 854 157 869 l 185 719 l 77 719 l 77 628 l 404 628 l 404 719 l 299 719 l 299 1014 l 185 1014 b 88 969 171 980 120 969 z m 169 294 l 256 202 l 828 719 l 742 811 z m 537 263 l 639 253 b 711 307 642 290 664 307 b 764 269 749 307 764 296 b 682 213 764 236 720 229 b 539 90 611 183 539 155 l 539 0 l 884 0 l 884 90 l 647 90 b 728 140 654 108 677 119 b 876 279 792 167 876 194 b 712 391 876 358 806 391 b 537 263 592 391 531 338 z "},"⅓":{"ha":971,"x_min":0,"x_max":0,"o":"m 88 969 l 88 854 b 185 891 122 854 157 869 l 185 719 l 77 719 l 77 628 l 404 628 l 404 719 l 299 719 l 299 1014 l 185 1014 b 88 969 171 980 120 969 z m 169 294 l 256 202 l 828 719 l 742 811 z m 526 110 b 710 -6 526 13 602 -6 b 894 111 812 -6 894 19 b 810 192 894 163 858 184 b 885 283 852 206 885 232 b 718 392 885 355 824 392 b 540 267 594 392 538 344 l 638 257 b 712 307 645 294 669 307 b 777 270 756 307 777 293 b 692 222 777 240 758 222 l 663 222 l 663 153 l 690 153 b 779 115 769 153 779 137 b 711 81 779 97 767 81 b 628 122 656 81 637 96 z "},"⅔":{"ha":971,"x_min":0,"x_max":0,"o":"m 253 1019 b 78 892 133 1019 73 966 l 181 881 b 253 935 183 919 206 935 b 306 897 291 935 306 924 b 224 841 306 865 262 858 b 81 719 153 811 81 783 l 81 628 l 426 628 l 426 719 l 189 719 b 269 769 196 737 219 747 b 417 908 334 796 417 822 b 253 1019 417 987 347 1019 z m 169 294 l 256 202 l 828 719 l 742 811 z m 526 110 b 710 -6 526 13 602 -6 b 894 111 812 -6 894 19 b 810 192 894 163 858 184 b 885 283 852 206 885 232 b 718 392 885 355 824 392 b 540 267 594 392 538 344 l 638 257 b 712 307 645 294 669 307 b 777 270 756 307 777 293 b 692 222 777 240 758 222 l 663 222 l 663 153 l 690 153 b 779 115 769 153 779 137 b 711 81 779 97 767 81 b 628 122 656 81 637 96 z "},"¼":{"ha":971,"x_min":0,"x_max":0,"o":"m 84 969 l 84 854 b 182 891 119 854 153 869 l 182 719 l 74 719 l 74 628 l 401 628 l 401 719 l 296 719 l 296 1014 l 182 1014 b 84 969 167 980 117 969 z m 173 294 l 259 202 l 832 719 l 746 811 z m 483 77 l 690 77 l 690 0 l 800 0 l 800 77 l 855 77 l 855 167 l 800 167 l 800 385 l 680 385 l 483 167 z m 591 160 l 690 261 l 690 160 z "},"¾":{"ha":971,"x_min":0,"x_max":0,"o":"m 253 1020 b 75 896 130 1020 73 973 l 174 885 b 247 935 181 922 204 935 b 313 899 292 935 313 922 b 227 851 313 869 293 851 l 198 851 l 198 781 l 225 781 b 315 744 305 781 315 765 b 247 710 315 725 302 710 b 163 750 191 710 172 724 l 61 739 b 245 622 61 641 138 622 b 429 740 347 622 429 647 b 346 821 429 792 393 813 b 421 912 388 834 421 860 b 253 1020 421 983 360 1020 z m 173 294 l 259 202 l 831 719 l 746 811 z m 482 77 l 690 77 l 690 0 l 799 0 l 799 77 l 854 77 l 854 167 l 799 167 l 799 385 l 679 385 l 482 167 z m 590 160 l 690 261 l 690 160 z "},"⅛":{"ha":971,"x_min":0,"x_max":0,"o":"m 88 969 l 88 854 b 185 891 122 854 157 869 l 185 719 l 77 719 l 77 628 l 404 628 l 404 719 l 299 719 l 299 1014 l 185 1014 b 88 969 171 980 120 969 z m 169 294 l 256 202 l 828 719 l 742 811 z m 517 103 b 702 -6 517 30 578 -6 b 892 112 826 -6 892 34 b 817 203 892 156 858 185 b 878 286 851 219 878 245 b 705 392 878 350 810 392 b 531 280 599 391 531 347 b 592 191 531 243 557 212 b 517 103 551 175 517 149 z m 625 117 b 673 164 625 144 649 155 b 776 111 725 152 776 135 b 707 76 776 91 751 76 b 625 117 672 76 625 83 z m 640 278 b 702 313 640 305 661 313 b 780 278 747 313 780 303 b 713 233 780 246 742 239 b 640 278 670 244 640 260 z "},"⅜":{"ha":971,"x_min":0,"x_max":0,"o":"m 258 1020 b 79 896 134 1020 77 973 l 178 885 b 251 935 185 922 208 935 b 317 899 296 935 317 922 b 231 851 317 869 297 851 l 202 851 l 202 781 l 229 781 b 319 744 309 781 319 765 b 251 710 319 725 306 710 b 167 750 195 710 176 724 l 65 739 b 249 622 65 641 142 622 b 433 740 351 622 433 647 b 350 821 433 792 397 813 b 425 912 392 834 425 860 b 258 1020 425 983 364 1020 z m 170 294 l 256 202 l 828 719 l 743 811 z m 518 103 b 703 -6 518 30 578 -6 b 893 112 827 -6 893 34 b 818 203 893 156 859 185 b 879 286 852 219 879 245 b 706 392 879 350 811 392 b 532 280 600 391 532 347 b 593 191 532 243 558 212 b 518 103 551 175 518 149 z m 626 117 b 674 164 626 144 649 155 b 776 111 726 152 776 135 b 708 76 776 91 751 76 b 626 117 672 76 626 83 z m 640 278 b 703 313 640 305 662 313 b 781 278 748 313 781 303 b 714 233 781 246 743 239 b 640 278 671 244 640 260 z "},"⅝":{"ha":971,"x_min":0,"x_max":0,"o":"m 116 1014 l 83 802 l 182 791 b 253 813 200 806 228 813 b 328 764 310 813 328 791 b 251 710 328 730 300 710 b 177 749 214 710 184 723 l 72 739 b 252 623 72 648 154 623 b 440 763 363 623 440 667 b 288 881 440 847 380 881 b 189 860 245 881 216 872 l 202 923 l 417 923 l 417 1014 z m 169 294 l 256 202 l 828 719 l 742 811 z m 517 103 b 702 -6 517 30 578 -6 b 892 112 826 -6 892 34 b 817 203 892 156 858 185 b 878 286 851 219 878 245 b 705 392 878 350 810 392 b 531 280 599 391 531 347 b 592 191 531 243 557 212 b 517 103 551 175 517 149 z m 625 117 b 673 164 625 144 649 155 b 776 111 725 152 776 135 b 707 76 776 91 751 76 b 625 117 672 76 625 83 z m 640 278 b 702 313 640 305 661 313 b 780 278 747 313 780 303 b 713 233 780 246 742 239 b 640 278 670 244 640 260 z "},"⅞":{"ha":971,"x_min":0,"x_max":0,"o":"m 140 1014 l 140 923 l 356 923 l 217 628 l 331 628 l 483 956 l 483 1014 z m 159 294 l 245 202 l 818 719 l 732 811 z m 528 103 b 713 -6 528 30 589 -6 b 903 112 838 -6 903 34 b 828 203 903 156 869 185 b 890 286 863 219 890 245 b 716 392 890 350 822 392 b 542 280 610 391 542 347 b 603 191 542 243 568 212 b 528 103 562 175 528 149 z m 636 117 b 684 164 636 144 660 155 b 787 111 736 152 787 135 b 718 76 787 91 762 76 b 636 117 683 76 636 83 z m 651 278 b 713 313 651 305 672 313 b 791 278 758 313 791 303 b 724 233 791 246 753 239 b 651 278 681 244 651 260 z "},"₀":{"ha":971,"x_min":0,"x_max":0,"o":"m 674 -2 b 485 198 674 144 607 198 b 297 -2 365 198 297 144 b 485 -201 297 -137 365 -201 b 674 -2 607 -201 674 -137 z m 414 -2 b 485 103 414 80 431 103 b 557 -2 541 103 557 80 b 485 -107 557 -83 541 -107 b 414 -2 431 -107 414 -83 z m 444 -6 b 485 35 444 21 458 35 b 526 -6 513 35 526 21 b 485 -47 526 -31 513 -47 b 444 -6 458 -47 444 -31 z "},"₁":{"ha":971,"x_min":0,"x_max":0,"o":"m 340 147 l 340 31 b 438 68 375 31 410 47 l 438 -104 l 330 -104 l 330 -194 l 657 -194 l 657 -104 l 552 -104 l 552 191 l 438 191 b 340 147 424 157 373 147 z "},"₂":{"ha":971,"x_min":0,"x_max":0,"o":"m 474 197 b 299 69 353 197 293 143 l 401 58 b 473 113 403 96 426 113 b 526 74 511 113 526 101 b 444 18 526 42 482 35 b 301 -104 373 -12 301 -40 l 301 -194 l 646 -194 l 646 -104 l 409 -104 b 490 -54 416 -86 439 -76 b 638 85 554 -27 638 -1 b 474 197 638 164 567 197 z "},"₃":{"ha":971,"x_min":0,"x_max":0,"o":"m 482 197 b 303 73 358 197 301 150 l 402 63 b 476 113 409 99 433 113 b 541 76 520 113 541 99 b 456 28 541 46 522 28 l 426 28 l 426 -42 l 453 -42 b 543 -79 533 -42 543 -58 b 475 -113 543 -98 531 -113 b 392 -73 419 -113 401 -99 l 290 -84 b 474 -201 290 -182 366 -201 b 658 -83 576 -201 658 -176 b 574 -2 658 -31 622 -10 b 649 89 616 11 649 38 b 482 197 649 160 588 197 z "},"₄":{"ha":971,"x_min":0,"x_max":0,"o":"m 614 -194 l 614 -117 l 669 -117 l 669 -27 l 614 -27 l 614 191 l 494 191 l 297 -27 l 297 -117 l 504 -117 l 504 -194 z m 405 -34 l 504 67 l 504 -34 z "},"₅":{"ha":971,"x_min":0,"x_max":0,"o":"m 341 191 l 308 -21 l 407 -32 b 478 -10 425 -17 453 -10 b 553 -59 535 -10 553 -32 b 476 -113 553 -93 525 -113 b 402 -74 439 -113 409 -100 l 297 -84 b 477 -200 297 -175 379 -200 b 665 -60 588 -200 665 -156 b 513 58 665 24 605 58 b 414 38 470 58 441 49 l 427 100 l 642 100 l 642 191 z "},"₆":{"ha":971,"x_min":0,"x_max":0,"o":"m 499 197 b 300 -2 376 197 300 142 b 494 -200 300 -147 383 -200 b 672 -71 595 -200 672 -158 b 538 38 672 16 606 38 b 419 6 485 38 447 24 b 499 113 422 88 443 113 b 557 74 533 113 553 101 l 659 85 b 499 197 648 158 603 197 z m 421 -52 b 502 -35 443 -42 470 -35 b 560 -69 538 -35 560 -44 b 493 -113 560 -97 536 -113 b 421 -52 454 -113 428 -99 z "},"₇":{"ha":971,"x_min":0,"x_max":0,"o":"m 315 191 l 315 100 l 531 100 l 392 -194 l 506 -194 l 658 133 l 658 191 z "},"₈":{"ha":971,"x_min":0,"x_max":0,"o":"m 485 197 b 312 85 380 197 312 153 b 373 -3 312 49 338 17 b 298 -91 331 -19 298 -45 b 483 -200 298 -165 358 -200 b 673 -83 607 -200 673 -160 b 598 9 673 -38 639 -10 b 659 92 632 25 659 51 b 485 197 659 156 591 198 z m 406 -77 b 453 -31 406 -51 429 -40 b 556 -83 506 -42 556 -59 b 488 -118 556 -103 531 -118 b 406 -77 452 -118 406 -111 z m 420 83 b 483 119 420 110 442 119 b 560 84 528 119 560 109 b 494 38 560 51 523 44 b 420 83 451 49 420 65 z "},"₉":{"ha":971,"x_min":0,"x_max":0,"o":"m 472 -200 b 672 -1 595 -200 672 -145 b 478 197 672 144 588 197 b 300 68 376 197 300 155 b 433 -40 300 -19 366 -40 b 553 -8 486 -40 524 -27 b 473 -115 550 -90 528 -115 b 415 -76 438 -115 418 -104 l 313 -87 b 472 -200 324 -161 368 -200 z m 411 67 b 478 110 411 94 435 110 b 551 49 517 110 543 97 b 469 32 528 40 501 32 b 411 67 433 32 411 42 z "},"⁰":{"ha":971,"x_min":0,"x_max":0,"o":"m 674 956 b 485 1156 674 1102 607 1156 b 297 956 365 1156 297 1102 b 485 757 297 822 365 757 b 674 956 607 757 674 822 z m 414 956 b 485 1062 414 1038 431 1062 b 557 956 541 1062 557 1038 b 485 851 557 875 541 851 b 414 956 431 851 414 875 z m 444 953 b 485 994 444 979 458 994 b 526 953 513 994 526 979 b 485 912 526 927 513 912 b 444 953 458 912 444 928 z "},"¹":{"ha":971,"x_min":0,"x_max":0,"o":"m 340 1105 l 340 990 b 438 1026 375 990 410 1005 l 438 854 l 330 854 l 330 764 l 657 764 l 657 854 l 552 854 l 552 1149 l 438 1149 b 340 1105 424 1115 373 1105 z "},"²":{"ha":971,"x_min":0,"x_max":0,"o":"m 474 1155 b 299 1027 353 1155 293 1101 l 401 1017 b 473 1071 403 1054 426 1071 b 526 1033 511 1071 526 1060 b 444 976 526 1000 482 993 b 301 854 373 947 301 919 l 301 764 l 646 764 l 646 854 l 409 854 b 490 904 416 872 439 883 b 638 1043 554 931 638 958 b 474 1155 638 1122 567 1155 z "},"³":{"ha":971,"x_min":0,"x_max":0,"o":"m 482 1156 b 303 1031 358 1156 301 1108 l 402 1021 b 476 1071 409 1058 433 1071 b 541 1034 520 1071 541 1057 b 456 986 541 1004 522 986 l 426 986 l 426 917 l 453 917 b 543 879 533 917 543 901 b 475 845 543 860 531 845 b 392 885 419 845 401 860 l 290 874 b 474 758 290 776 366 758 b 658 875 576 758 658 783 b 574 956 658 927 622 948 b 649 1047 616 969 649 996 b 482 1156 649 1119 588 1156 z "},"⁴":{"ha":971,"x_min":0,"x_max":0,"o":"m 614 764 l 614 841 l 669 841 l 669 931 l 614 931 l 614 1149 l 494 1149 l 297 931 l 297 841 l 504 841 l 504 764 z m 405 924 l 504 1025 l 504 924 z "},"⁵":{"ha":971,"x_min":0,"x_max":0,"o":"m 341 1149 l 308 938 l 407 926 b 478 948 425 942 453 948 b 553 899 535 948 553 926 b 476 845 553 865 525 845 b 402 885 439 845 409 858 l 297 874 b 477 758 297 783 379 758 b 665 898 588 758 665 802 b 513 1016 665 982 605 1016 b 414 996 470 1016 441 1008 l 427 1058 l 642 1058 l 642 1149 z "},"⁶":{"ha":971,"x_min":0,"x_max":0,"o":"m 499 1156 b 300 956 376 1156 300 1101 b 494 758 300 812 383 758 b 672 888 595 758 672 801 b 538 996 672 974 606 996 b 419 964 485 996 447 983 b 499 1071 422 1046 443 1071 b 557 1032 533 1071 553 1060 l 659 1043 b 499 1156 648 1117 603 1156 z m 421 906 b 502 924 443 916 470 924 b 560 889 538 924 560 914 b 493 845 560 862 536 845 b 421 906 454 845 428 859 z "},"⁷":{"ha":971,"x_min":0,"x_max":0,"o":"m 315 1149 l 315 1058 l 531 1058 l 392 764 l 506 764 l 658 1092 l 658 1149 z "},"⁸":{"ha":971,"x_min":0,"x_max":0,"o":"m 485 1156 b 312 1044 380 1155 312 1111 b 373 955 312 1007 338 976 b 298 867 331 939 298 913 b 483 758 298 794 358 758 b 673 876 607 758 673 798 b 598 967 673 920 639 949 b 659 1050 632 983 659 1009 b 485 1156 659 1114 591 1156 z m 406 881 b 453 928 406 908 429 919 b 556 875 506 916 556 899 b 488 840 556 855 531 840 b 406 881 452 840 406 847 z m 420 1042 b 483 1077 420 1069 442 1077 b 560 1042 528 1077 560 1067 b 494 997 560 1010 523 1003 b 420 1042 451 1008 420 1024 z "},"⁹":{"ha":971,"x_min":0,"x_max":0,"o":"m 472 758 b 672 958 595 758 672 813 b 478 1156 672 1102 588 1156 b 300 1026 376 1156 300 1113 b 433 918 300 940 366 918 b 553 950 486 918 524 931 b 473 843 550 868 528 843 b 415 882 438 843 418 854 l 313 871 b 472 758 324 797 368 758 z m 411 1025 b 478 1069 411 1052 435 1069 b 551 1008 517 1069 543 1055 b 469 990 528 998 501 990 b 411 1025 433 990 411 1000 z "},".":{"ha":971,"x_min":0,"x_max":0,"o":"m 484 -28 b 648 132 574 -28 648 33 b 484 291 648 232 574 291 b 318 132 393 291 318 232 b 484 -28 318 33 393 -28 z "},",":{"ha":971,"x_min":0,"x_max":0,"o":"m 499 -29 b 524 -28 508 -29 517 -28 b 303 -262 493 -114 413 -190 l 406 -342 b 684 74 551 -255 684 -117 b 501 290 684 222 604 290 b 333 131 403 290 333 229 b 499 -29 333 32 406 -29 z "},":":{"ha":971,"x_min":0,"x_max":0,"o":"m 489 -21 b 653 140 578 -21 653 40 b 489 299 653 240 578 299 b 323 140 398 299 323 240 b 489 -21 323 40 398 -21 z m 323 673 b 489 513 323 574 398 513 b 653 673 578 513 653 574 b 489 832 653 773 578 832 b 323 673 398 832 323 773 z "},";":{"ha":971,"x_min":0,"x_max":0,"o":"m 499 -29 b 524 -28 508 -29 517 -28 b 303 -262 493 -114 413 -190 l 406 -342 b 684 74 551 -255 684 -117 b 501 290 684 222 604 290 b 333 131 403 290 333 229 b 499 -29 333 32 406 -29 z m 319 673 b 485 513 319 574 394 513 b 649 673 575 513 649 574 b 485 832 649 773 575 832 b 319 673 394 832 319 773 z "},"…":{"ha":971,"x_min":0,"x_max":0,"o":"m 172 -19 b 292 106 238 -19 292 29 b 172 229 292 183 238 229 b 50 106 105 229 50 183 b 172 -19 50 29 105 -19 z m 364 106 b 486 -19 364 29 419 -19 b 607 106 552 -19 607 29 b 486 229 607 183 552 229 b 364 106 419 229 364 183 z m 678 106 b 801 -19 678 29 733 -19 b 921 106 866 -19 921 29 b 801 229 921 183 866 229 b 678 106 733 229 678 183 z "},"!":{"ha":971,"x_min":0,"x_max":0,"o":"m 582 447 l 603 1014 l 368 1014 l 390 447 z m 337 121 b 486 -19 337 34 404 -19 b 634 121 567 -19 634 34 b 486 259 634 208 567 259 b 337 121 404 259 337 208 z "},"¡":{"ha":971,"x_min":0,"x_max":0,"o":"m 388 304 l 367 -263 l 602 -263 l 581 304 z m 336 630 b 484 492 336 543 403 492 b 633 630 566 492 633 543 b 484 769 633 717 566 769 b 336 630 403 769 336 717 z "},"?":{"ha":971,"x_min":0,"x_max":0,"o":"m 486 -19 b 634 121 567 -19 634 34 b 486 259 634 208 567 259 b 337 121 404 259 337 208 b 486 -19 337 34 404 -19 z m 131 718 l 335 697 b 471 852 342 809 385 852 b 584 741 543 852 584 822 b 385 569 584 636 515 602 l 390 426 l 583 426 l 585 502 b 808 757 701 526 808 588 b 474 1030 808 945 672 1030 b 131 718 236 1030 119 915 z "},"¿":{"ha":971,"x_min":0,"x_max":0,"o":"m 484 769 b 336 630 403 769 336 717 b 484 492 336 543 403 492 b 633 630 566 492 633 543 b 484 769 633 717 566 769 z m 163 -6 b 497 -279 163 -194 299 -279 b 840 33 735 -279 852 -164 l 635 54 b 500 -101 629 -58 585 -101 b 387 10 428 -101 387 -71 b 585 182 387 115 456 149 l 581 325 l 388 325 l 386 249 b 163 -6 270 224 163 163 z "},"·":{"ha":971,"x_min":0,"x_max":0,"o":"m 484 308 b 648 469 574 308 648 369 b 484 628 648 569 574 628 b 318 469 393 628 318 569 b 484 308 318 369 393 308 z "},"•":{"ha":971,"x_min":0,"x_max":0,"o":"m 487 253 b 707 469 607 253 707 335 b 487 682 707 603 607 682 b 264 469 365 682 264 603 b 487 253 264 335 365 253 z "},"*":{"ha":971,"x_min":0,"x_max":0,"o":"m 88 693 l 340 635 l 169 438 l 348 308 l 485 535 l 623 308 l 802 438 l 631 634 l 883 693 l 815 903 l 574 801 l 597 1063 l 374 1063 l 398 801 l 156 903 z "},"#":{"ha":971,"x_min":0,"x_max":0,"o":"m 358 -139 l 378 124 l 542 124 l 521 -139 l 722 -139 l 742 124 l 890 124 l 890 312 l 758 312 l 778 563 l 925 563 l 925 751 l 793 751 l 814 1014 l 613 1014 l 592 751 l 429 751 l 450 1014 l 249 1014 l 228 751 l 82 751 l 82 563 l 213 563 l 193 312 l 47 312 l 47 124 l 178 124 l 157 -139 z m 394 312 l 414 563 l 577 563 l 557 312 z "},"/":{"ha":971,"x_min":0,"x_max":0,"o":"m 342 -139 l 825 1014 l 579 1014 l 96 -139 z "},"\\":{"ha":971,"x_min":0,"x_max":0,"o":"m 629 -139 l 146 1014 l 392 1014 l 875 -139 z "},"‣":{"ha":971,"x_min":0,"x_max":0,"o":"m 274 742 l 274 192 l 756 467 z "},"-":{"ha":971,"x_min":0,"x_max":0,"o":"m 125 373 l 846 373 l 846 561 l 125 561 z "},"­":{"ha":971,"x_min":0,"x_max":0,"o":"m 125 373 l 846 373 l 846 561 l 125 561 z "},"–":{"ha":971,"x_min":0,"x_max":0,"o":"m 125 373 l 846 373 l 846 561 l 125 561 z "},"—":{"ha":971,"x_min":0,"x_max":0,"o":"m 0 373 l 971 373 l 971 561 l 0 561 z "},"_":{"ha":971,"x_min":0,"x_max":0,"o":"m 0 -250 l 971 -250 l 971 -160 l 0 -160 z "},"(":{"ha":971,"x_min":0,"x_max":0,"o":"m 458 417 b 844 1113 458 747 626 929 l 628 1113 b 240 417 448 985 240 788 b 628 -278 240 45 448 -151 l 844 -278 b 458 417 626 -94 458 89 z "},")":{"ha":971,"x_min":0,"x_max":0,"o":"m 513 417 b 127 -278 513 89 345 -94 l 342 -278 b 731 417 523 -151 731 47 b 342 1113 731 790 523 985 l 127 1113 b 513 417 345 929 513 747 z "},"{":{"ha":971,"x_min":0,"x_max":0,"o":"m 103 315 b 392 63 366 310 429 237 l 383 21 b 639 -278 342 -173 426 -278 l 867 -278 l 867 -111 l 744 -111 b 609 85 622 -111 587 -60 l 615 123 b 383 418 637 274 574 385 b 615 714 574 451 638 562 l 609 750 b 744 947 587 896 622 947 l 867 947 l 867 1113 l 639 1113 b 383 815 426 1113 343 1008 l 392 772 b 103 519 428 598 366 524 z "},"}":{"ha":971,"x_min":0,"x_max":0,"o":"m 103 -278 l 332 -278 b 588 21 544 -278 628 -173 l 578 63 b 867 315 542 237 605 310 l 867 519 b 578 772 605 524 542 598 l 588 815 b 332 1113 628 1008 544 1113 l 103 1113 l 103 947 l 226 947 b 362 750 349 947 384 896 l 356 714 b 588 418 333 562 397 451 b 356 123 397 385 334 274 l 362 85 b 226 -111 384 -60 349 -111 l 103 -111 z "},"[":{"ha":971,"x_min":0,"x_max":0,"o":"m 257 -278 l 807 -278 l 807 -111 l 472 -111 l 472 946 l 807 946 l 807 1113 l 257 1113 z "},"]":{"ha":971,"x_min":0,"x_max":0,"o":"m 714 -278 l 714 1113 l 164 1113 l 164 946 l 499 946 l 499 -111 l 164 -111 l 164 -278 z "},"‚":{"ha":971,"x_min":0,"x_max":0,"o":"m 550 -29 b 575 -28 558 -29 567 -28 b 354 -262 544 -114 463 -190 l 456 -342 b 735 74 601 -255 735 -117 b 551 290 735 222 655 290 b 383 131 454 290 383 229 b 550 -29 383 32 456 -29 z "},"„":{"ha":971,"x_min":0,"x_max":0,"o":"m 353 -29 b 378 -28 361 -29 370 -28 b 157 -262 347 -114 266 -190 l 259 -342 b 538 74 404 -255 538 -117 b 354 290 538 222 458 290 b 186 131 257 290 186 229 b 353 -29 186 32 259 -29 z m 590 -262 l 692 -342 b 971 74 838 -255 971 -117 b 788 290 971 222 891 290 b 619 131 690 290 619 229 b 786 -29 619 32 692 -29 b 811 -28 794 -29 803 -28 b 590 -262 780 -114 699 -190 z "},"“":{"ha":971,"x_min":0,"x_max":0,"o":"m 192 725 b 167 724 183 725 174 724 b 388 958 198 810 278 886 l 285 1038 b 7 622 140 951 7 813 b 190 406 7 474 87 406 b 358 565 288 406 358 467 b 192 725 358 664 285 725 z m 440 622 b 624 406 440 474 520 406 b 792 565 721 406 792 467 b 625 725 792 664 719 725 b 600 724 617 725 608 724 b 821 958 631 810 712 886 l 719 1038 b 440 622 574 951 440 813 z "},"”":{"ha":971,"x_min":0,"x_max":0,"o":"m 353 711 b 378 713 361 711 370 712 b 157 478 347 626 266 550 l 259 399 b 538 814 404 485 538 623 b 354 1031 538 962 458 1031 b 186 872 257 1031 186 969 b 353 711 186 772 259 711 z m 590 478 l 692 399 b 971 814 838 485 971 623 b 788 1031 971 962 891 1031 b 619 872 690 1031 619 969 b 786 711 619 772 692 711 b 811 713 794 711 803 712 b 590 478 780 626 699 550 z "},"‘":{"ha":971,"x_min":0,"x_max":0,"o":"m 421 725 b 396 724 413 725 403 724 b 617 958 427 810 508 886 l 515 1038 b 236 622 369 951 236 813 b 419 406 236 474 316 406 b 588 565 517 406 588 467 b 421 725 588 664 515 725 z "},"’":{"ha":971,"x_min":0,"x_max":0,"o":"m 550 711 b 575 713 558 711 567 712 b 354 478 544 626 463 550 l 456 399 b 735 814 601 485 735 623 b 551 1031 735 962 655 1031 b 383 872 454 1031 383 969 b 550 711 383 772 456 711 z "},"«":{"ha":971,"x_min":0,"x_max":0,"o":"m 474 42 l 277 381 l 474 710 l 255 735 l 51 374 l 255 17 z m 450 374 l 654 17 l 874 42 l 676 381 l 874 710 l 654 735 z "},"»":{"ha":971,"x_min":0,"x_max":0,"o":"m 474 710 l 672 370 l 474 41 l 694 17 l 898 377 l 694 735 z m 75 41 l 294 17 l 499 377 l 294 735 l 75 710 l 272 370 z "},"‹":{"ha":971,"x_min":0,"x_max":0,"o":"m 701 88 l 498 380 l 701 665 l 505 768 l 243 374 l 504 -17 z "},"›":{"ha":971,"x_min":0,"x_max":0,"o":"m 269 664 l 473 372 l 269 86 l 466 -17 l 728 377 l 467 768 z "},"\"":{"ha":971,"x_min":0,"x_max":0,"o":"m 367 517 l 386 1014 l 162 1014 l 181 517 z m 585 1014 l 603 517 l 790 517 l 809 1014 z "},"'":{"ha":971,"x_min":0,"x_max":0,"o":"m 579 517 l 598 1014 l 374 1014 l 392 517 z "},"ƒ":{"ha":971,"x_min":0,"x_max":0,"o":"m 826 611 l 826 439 l 383 439 l 406 611 l 632 611 l 551 8 b 258 -294 521 -217 427 -294 b 122 -272 212 -294 163 -289 l 135 -100 b 197 -107 152 -104 171 -107 b 335 76 283 -107 315 -77 l 383 439 l 187 439 l 187 611 l 406 611 l 421 728 b 713 1030 450 953 544 1030 b 849 1007 759 1030 808 1024 l 836 835 b 774 842 819 840 800 842 b 639 660 688 842 659 812 l 632 611 z "},"@":{"ha":971,"x_min":0,"x_max":0,"o":"m 361 452 l 361 320 b 559 -18 361 83 429 -18 b 722 72 638 -18 687 19 l 746 72 b 849 -17 755 13 792 -17 b 929 4 874 -17 902 -10 l 929 159 b 883 206 894 155 883 161 l 883 570 b 506 1031 883 868 799 1031 b 78 490 215 1031 78 872 l 78 243 b 539 -267 78 -152 253 -267 b 869 -219 662 -267 769 -251 l 869 -88 b 552 -138 788 -112 683 -138 b 214 251 347 -138 214 -69 l 214 497 b 506 899 214 798 326 899 b 734 687 663 899 723 824 l 722 687 b 559 767 681 738 627 767 b 361 452 440 767 361 679 z m 513 342 l 513 437 b 626 631 513 591 559 631 b 736 587 660 631 702 620 l 736 172 b 628 119 703 130 663 119 b 513 342 557 119 513 169 z "},"&":{"ha":971,"x_min":0,"x_max":0,"o":"m 642 526 b 633 399 642 478 639 436 l 506 558 b 363 791 424 663 363 726 b 458 868 363 834 390 868 b 574 758 522 868 559 837 l 774 799 b 459 1030 756 954 647 1030 b 136 788 239 1030 136 926 b 222 574 136 703 173 639 b 49 272 120 510 49 416 b 369 -17 49 87 166 -17 b 626 63 478 -17 563 13 l 677 0 l 951 0 l 754 247 b 795 428 775 301 788 363 l 923 428 l 923 610 l 642 610 z m 269 327 b 312 460 269 386 286 428 l 526 190 b 422 162 496 171 461 162 b 269 327 322 162 269 222 z "},"¶":{"ha":971,"x_min":0,"x_max":0,"o":"m 349 0 l 521 0 l 521 826 l 656 826 l 656 0 l 828 0 l 828 826 l 915 826 l 915 1014 l 326 1014 b 56 763 155 1014 56 929 b 349 464 56 588 165 472 z "},"§":{"ha":971,"x_min":0,"x_max":0,"o":"m 242 612 l 390 516 b 328 483 365 510 344 499 b 169 572 264 504 208 532 b 242 612 190 587 215 601 z m 35 10 l 243 44 b 482 -112 277 -83 376 -112 b 657 -3 603 -112 657 -69 b 399 130 657 69 594 91 b 80 395 219 167 80 242 b 169 572 80 468 110 528 b 103 741 127 613 103 668 b 519 1030 103 920 251 1030 b 890 728 760 1030 885 928 l 687 707 b 488 856 665 826 603 856 b 324 756 392 856 324 833 b 558 619 324 666 413 645 b 910 356 766 578 910 518 b 825 174 910 281 880 219 b 773 140 810 161 792 150 l 611 242 b 647 263 625 248 637 255 b 825 174 722 242 783 215 b 888 13 865 135 888 83 b 460 -294 888 -181 718 -294 b 35 10 233 -294 66 -212 z m 302 416 b 535 290 302 335 390 315 b 647 263 574 282 612 274 b 679 335 669 283 679 308 b 422 460 679 399 617 421 b 328 483 389 467 358 474 b 302 416 312 466 302 443 z "},"©":{"ha":971,"x_min":0,"x_max":0,"o":"m 426 508 b 495 648 426 606 449 648 b 558 568 532 648 552 620 l 683 578 b 492 767 671 709 597 767 b 291 508 369 767 291 687 b 489 248 290 330 366 248 b 683 441 593 248 671 306 l 558 451 b 495 368 551 394 532 368 b 426 508 449 368 426 409 z m 49 508 b 485 -17 49 176 230 -17 b 922 508 740 -17 922 176 b 485 1031 922 838 740 1031 b 49 508 230 1031 49 838 z m 122 508 b 485 963 122 801 277 963 b 849 508 694 963 849 801 b 485 51 849 213 694 51 b 122 508 277 51 122 213 z "},"®":{"ha":971,"x_min":0,"x_max":0,"o":"m 444 269 l 444 422 l 460 422 b 508 424 477 422 494 423 l 558 269 l 698 269 l 619 460 b 688 599 665 490 688 538 b 525 748 688 699 625 749 l 322 747 l 322 269 z m 49 508 b 485 -17 49 176 230 -17 b 922 508 740 -17 922 176 b 485 1031 922 838 740 1031 b 49 508 230 1031 49 838 z m 122 508 b 485 963 122 801 277 963 b 849 508 694 963 849 801 b 485 51 849 213 694 51 b 122 508 277 51 122 213 z m 444 504 l 444 665 l 481 665 b 557 587 528 665 557 638 b 456 504 557 541 534 504 z "},"™":{"ha":971,"x_min":0,"x_max":0,"o":"m 289 588 l 289 952 l 404 952 l 404 1063 l 50 1063 l 50 952 l 165 952 l 165 588 z m 465 588 l 581 588 l 581 853 l 585 853 l 665 694 l 687 694 l 769 853 l 774 853 l 774 588 l 891 588 l 891 1063 l 775 1063 l 681 884 l 676 884 l 588 1063 l 465 1063 z "},"°":{"ha":971,"x_min":0,"x_max":0,"o":"m 431 599 b 663 839 567 599 663 696 b 431 1079 663 982 567 1079 b 198 839 293 1079 198 982 b 431 599 198 696 293 599 z m 311 839 b 431 968 311 913 357 968 b 549 839 503 968 549 913 b 431 710 549 765 503 710 b 311 839 357 710 311 765 z "},"|":{"ha":971,"x_min":0,"x_max":0,"o":"m 600 -278 l 600 1113 l 371 1113 l 371 -278 z "},"¦":{"ha":971,"x_min":0,"x_max":0,"o":"m 600 509 l 600 1113 l 371 1113 l 371 509 z m 371 -278 l 600 -278 l 600 326 l 371 326 z "},"†":{"ha":971,"x_min":0,"x_max":0,"o":"m 601 -153 l 601 562 l 835 562 l 835 750 l 601 750 l 601 1014 l 372 1014 l 372 750 l 136 750 l 136 562 l 372 562 l 372 -153 z "},"ℓ":{"ha":971,"x_min":0,"x_max":0,"o":"m 594 -15 b 866 35 697 -15 778 5 l 834 205 b 657 169 778 183 713 169 b 490 315 566 169 514 205 b 831 779 692 433 831 576 b 577 1031 831 934 750 1031 b 239 492 371 1031 239 902 b 245 342 239 436 241 386 b 80 269 194 317 138 293 l 128 144 b 269 205 176 164 224 184 b 594 -15 321 22 434 -15 z m 472 534 b 597 864 472 803 520 864 b 679 766 654 864 679 830 b 473 469 679 656 603 559 b 472 534 472 490 472 511 z "},"‡":{"ha":971,"x_min":0,"x_max":0,"o":"m 601 -153 l 601 111 l 835 111 l 835 299 l 601 299 l 601 562 l 835 562 l 835 750 l 601 750 l 601 1014 l 372 1014 l 372 750 l 136 750 l 136 562 l 372 562 l 372 299 l 136 299 l 136 111 l 372 111 l 372 -153 z "},"№":{"ha":971,"x_min":0,"x_max":0,"o":"m 368 0 l 542 0 l 542 1014 l 397 1014 l 397 368 l 384 368 l 231 1014 l 56 1014 l 56 0 l 200 0 l 200 636 l 213 636 z m 612 753 b 781 486 612 560 687 486 b 951 753 876 486 951 560 b 781 1031 951 947 876 1031 b 612 753 687 1031 612 947 z m 683 280 b 782 170 683 212 726 170 b 880 280 838 170 880 212 b 782 388 880 348 838 388 b 683 280 726 388 683 348 z m 719 756 b 781 888 719 851 742 888 b 844 756 821 888 844 851 b 781 628 844 662 821 628 b 719 756 742 628 719 662 z "},"℣":{"ha":5823,"x_min":0,"x_max":0,"o":"m 371 0 l 600 0 l 883 444 l 883 751 l 661 751 l 661 485 l 488 174 l 313 485 l 313 751 l 87 751 l 87 444 z m 1092 0 l 1840 0 l 1840 188 l 1589 188 l 1589 1014 l 1415 1014 l 1122 938 l 1122 738 l 1360 797 l 1360 188 l 1092 188 z m 2259 132 b 2425 -28 2259 33 2334 -28 b 2589 132 2515 -28 2589 33 b 2425 291 2589 232 2515 291 b 2259 132 2334 291 2259 232 z m 2969 367 l 3263 0 l 3531 0 l 3825 367 l 3825 647 l 3525 1014 l 3263 1014 l 2969 647 z m 3194 450 l 3194 565 l 3369 798 l 3426 798 l 3599 565 l 3599 450 l 3426 216 l 3369 216 z m 3328 428 l 3465 428 l 3465 588 l 3328 588 z m 3940 367 l 4234 0 l 4501 0 l 4795 367 l 4795 647 l 4496 1014 l 4234 1014 l 3940 647 z m 4165 450 l 4165 565 l 4339 798 l 4396 798 l 4569 565 l 4569 450 l 4396 216 l 4339 216 z m 4299 428 l 4436 428 l 4436 588 l 4299 588 z m 4910 367 l 5204 0 l 5472 0 l 5766 367 l 5766 647 l 5466 1014 l 5204 1014 l 4910 647 z m 5135 450 l 5135 565 l 5310 798 l 5367 798 l 5540 565 l 5540 450 l 5367 216 l 5310 216 z m 5269 428 l 5406 428 l 5406 588 l 5269 588 z "},"₿":{"ha":971,"x_min":0,"x_max":0,"o":"m 560 -205 l 730 -205 l 730 34 b 925 299 849 80 925 170 b 642 532 925 474 782 529 l 642 539 b 878 792 760 551 878 629 b 717 995 878 912 817 969 l 717 1219 l 547 1219 l 547 1014 l 514 1014 l 393 1014 l 393 1219 l 223 1219 l 223 1014 l 103 1014 l 103 0 l 235 0 l 235 -205 l 406 -205 l 406 0 l 525 0 b 560 1 537 0 549 0 z m 337 160 l 337 444 l 462 444 b 693 312 614 444 693 417 b 462 160 693 192 601 160 z m 337 596 l 337 854 l 462 854 b 656 731 594 854 656 826 b 449 596 656 651 590 596 z "},"¢":{"ha":971,"x_min":0,"x_max":0,"o":"m 860 349 l 647 372 b 532 274 633 313 591 283 l 573 651 b 646 569 610 637 636 611 l 860 587 b 602 810 829 708 736 784 l 625 1014 l 465 1014 l 443 817 b 103 468 236 801 103 678 b 363 129 103 286 203 169 l 342 -80 l 502 -80 l 522 115 b 860 349 694 124 824 206 z m 313 468 b 432 656 313 583 357 638 l 392 293 b 313 468 342 320 313 375 z "},"₡":{"ha":971,"x_min":0,"x_max":0,"o":"m 440 -205 l 367 -205 l 423 233 b 493 201 444 219 468 208 l 465 -10 b 394 3 440 -6 417 -2 b 63 510 185 55 63 208 b 526 1028 63 872 239 1012 b 590 1031 547 1030 568 1031 l 600 1031 l 574 826 b 499 815 548 824 522 821 l 551 1219 l 624 1219 l 600 1031 b 694 1025 633 1031 665 1028 b 767 1013 719 1022 744 1018 l 740 812 b 668 824 717 817 694 821 l 719 1219 l 793 1219 l 767 1013 b 883 976 808 1004 847 992 l 826 786 b 740 812 798 797 770 805 l 633 -15 b 581 -17 617 -16 599 -17 l 560 -17 l 586 188 l 606 188 b 660 190 625 188 643 188 b 830 235 723 197 778 213 l 882 44 b 633 -15 810 11 730 -10 l 609 -205 l 535 -205 l 560 -17 b 465 -10 527 -16 496 -14 z m 311 510 b 423 233 311 360 356 277 l 499 815 b 311 510 393 790 311 712 z m 493 201 b 586 188 522 193 554 189 l 668 824 b 606 826 649 826 628 826 b 574 826 595 826 584 826 z "},"¤":{"ha":971,"x_min":0,"x_max":0,"o":"m 485 157 b 651 192 547 157 603 169 l 756 82 l 903 226 l 792 329 b 822 467 812 369 822 416 b 792 606 822 518 812 565 l 903 708 l 756 852 l 651 743 b 485 777 603 765 547 777 b 320 743 424 777 368 765 l 215 852 l 67 708 l 178 605 b 148 467 158 565 148 518 b 178 328 148 416 158 369 l 67 226 l 215 82 l 320 192 b 485 157 368 169 424 157 z m 339 467 b 485 614 339 556 394 614 b 632 467 577 614 632 556 b 485 320 632 378 577 320 b 339 467 394 320 339 378 z "},"$":{"ha":971,"x_min":0,"x_max":0,"o":"m 681 707 l 890 728 b 576 1027 885 909 780 1010 l 576 1219 l 406 1219 l 406 1024 b 81 730 197 1000 81 898 b 408 422 81 553 224 466 l 418 420 l 418 170 b 249 321 339 183 275 224 l 35 287 b 406 -15 64 87 207 0 l 406 -205 l 576 -205 l 576 -11 b 910 303 782 16 910 124 b 565 608 910 488 769 560 l 565 847 b 681 707 630 833 665 793 z m 308 760 b 418 852 308 818 354 844 l 418 643 b 308 760 349 666 308 697 z m 565 171 l 565 382 b 674 276 644 355 674 326 b 565 171 674 225 638 186 z "},"€":{"ha":971,"x_min":0,"x_max":0,"o":"m 663 453 l 633 328 l 156 328 b 140 453 148 367 143 408 l 390 453 b 414 328 393 403 401 362 b 638 188 456 216 542 188 b 827 232 706 188 765 203 l 880 41 b 615 -17 801 2 719 -17 b 156 328 381 -17 209 76 l 42 328 l 42 453 l 140 453 b 139 510 140 472 139 491 b 140 560 139 528 140 544 b 155 685 142 606 147 647 l 412 685 b 389 560 400 652 392 610 l 42 560 l 42 685 l 155 685 b 623 1031 206 944 383 1031 b 881 979 723 1031 802 1016 l 823 790 b 638 826 755 814 706 826 b 412 685 540 826 453 801 l 717 685 l 687 560 l 389 560 b 388 510 388 544 388 528 b 390 453 388 490 388 472 z "},"₺":{"ha":971,"x_min":0,"x_max":0,"o":"m 392 1014 l 158 1014 l 158 749 l 49 708 l 49 599 l 158 639 l 158 547 l 49 506 l 49 397 l 158 437 l 158 0 l 400 0 b 886 474 716 0 876 151 l 649 474 b 392 169 639 295 565 186 l 392 523 l 613 605 l 613 715 l 392 633 l 392 725 l 613 807 l 613 917 l 392 835 z "},"₱":{"ha":971,"x_min":0,"x_max":0,"o":"m 389 0 l 389 248 l 409 248 b 814 506 643 248 769 344 l 929 506 l 929 593 l 830 593 b 833 665 832 616 833 640 l 833 675 l 929 675 l 929 762 l 826 762 b 510 1014 799 943 685 1014 l 155 1014 l 155 762 l 42 762 l 42 675 l 155 675 l 155 593 l 42 593 l 42 506 l 155 506 l 155 0 z m 389 420 l 389 506 l 571 506 b 428 420 549 453 506 420 z m 389 593 l 389 675 l 591 675 b 592 642 592 665 592 653 b 590 593 592 625 591 609 z m 389 762 l 389 848 l 440 848 b 577 762 513 848 556 824 z "},"₽":{"ha":971,"x_min":0,"x_max":0,"o":"m 413 0 l 413 124 l 724 124 l 724 284 l 413 284 l 413 391 l 439 391 b 876 738 763 391 876 546 b 556 1014 876 940 748 1014 l 179 1014 l 179 551 l 42 551 l 42 391 l 179 391 l 179 284 l 42 284 l 42 124 l 179 124 l 179 0 z m 413 551 l 413 860 l 482 860 b 643 719 590 860 643 822 b 471 551 643 622 595 551 z "},"£":{"ha":971,"x_min":0,"x_max":0,"o":"m 654 399 l 654 552 l 433 552 b 385 726 413 612 385 661 b 519 852 385 825 452 852 b 658 697 599 852 647 816 l 863 718 b 513 1030 874 915 748 1030 b 160 751 308 1030 160 945 b 206 552 160 673 184 613 l 113 552 l 113 399 l 242 399 l 242 390 b 113 165 242 286 189 214 l 113 0 l 851 0 l 851 188 l 367 188 b 456 399 419 246 451 318 z "},"₩":{"ha":971,"x_min":0,"x_max":0,"o":"m 90 1014 l 142 573 l 30 573 l 30 410 l 161 410 l 210 0 l 366 0 l 454 410 l 507 410 l 590 0 l 760 0 l 810 410 l 940 410 l 940 573 l 829 573 l 882 1014 l 683 1014 l 641 573 l 605 573 l 555 845 l 433 845 l 370 573 l 331 573 l 296 1014 z "},"¥":{"ha":971,"x_min":0,"x_max":0,"o":"m 816 113 l 816 272 l 588 272 l 588 376 l 816 376 l 816 536 l 663 536 l 926 1014 l 696 1014 l 489 597 l 478 597 l 270 1014 l 24 1014 l 285 536 l 135 536 l 135 376 l 359 376 l 359 272 l 135 272 l 135 113 l 359 113 l 359 0 l 588 0 l 588 113 z "},"∠":{"ha":971,"x_min":0,"x_max":0,"o":"m 808 0 l 808 188 l 431 188 l 425 198 l 687 673 l 502 760 l 124 69 l 153 0 z "},"∐":{"ha":971,"x_min":0,"x_max":0,"o":"m 617 1014 l 617 -90 l 354 -90 l 354 1014 l 151 1014 l 151 -90 l 49 -90 l 49 -278 l 922 -278 l 922 -90 l 820 -90 l 820 1014 z "},"∈":{"ha":971,"x_min":0,"x_max":0,"o":"m 135 507 b 611 0 135 169 267 0 l 795 0 l 795 188 l 647 188 b 359 419 458 188 378 256 l 795 419 l 795 598 l 359 598 b 647 826 378 759 460 826 l 795 826 l 795 1014 l 611 1014 b 135 507 267 1014 135 844 z "},"≡":{"ha":971,"x_min":0,"x_max":0,"o":"m 126 717 l 845 717 l 845 863 l 126 863 z m 126 71 l 845 71 l 845 217 l 126 217 z m 126 394 l 845 394 l 845 540 l 126 540 z "},"∃":{"ha":971,"x_min":0,"x_max":0,"o":"m 112 0 l 859 0 l 859 1014 l 112 1014 l 112 826 l 631 826 l 631 594 l 199 594 l 199 416 l 631 416 l 631 188 l 112 188 z "},"∇":{"ha":971,"x_min":0,"x_max":0,"o":"m 83 826 l 369 1 l 613 1 l 888 826 l 888 1015 l 84 1015 z m 331 817 l 331 826 l 658 826 l 658 817 l 503 307 l 493 307 z "},"+":{"ha":971,"x_min":0,"x_max":0,"o":"m 111 373 l 385 373 l 385 97 l 587 97 l 587 373 l 860 373 l 860 561 l 587 561 l 587 838 l 385 838 l 385 561 l 111 561 z "},"−":{"ha":971,"x_min":0,"x_max":0,"o":"m 125 373 l 846 373 l 846 561 l 125 561 z "},"×":{"ha":971,"x_min":0,"x_max":0,"o":"m 119 694 l 350 465 l 122 237 l 256 104 l 483 331 l 713 101 l 851 240 l 622 470 l 849 697 l 715 830 l 488 603 l 258 833 z "},"÷":{"ha":971,"x_min":0,"x_max":0,"o":"m 487 85 b 601 192 549 85 601 126 b 487 297 601 258 549 297 b 370 192 423 297 370 258 b 487 85 370 126 423 85 z m 125 373 l 846 373 l 846 561 l 125 561 z m 370 743 b 487 637 370 678 423 637 b 601 743 549 637 601 678 b 487 849 601 810 549 849 b 370 743 423 849 370 810 z "},"=":{"ha":971,"x_min":0,"x_max":0,"o":"m 125 577 l 846 577 l 846 765 l 125 765 z m 125 169 l 846 169 l 846 358 l 125 358 z "},"≠":{"ha":971,"x_min":0,"x_max":0,"o":"m 452 0 l 494 169 l 846 169 l 846 358 l 542 358 l 597 577 l 846 577 l 846 765 l 644 765 l 687 935 l 519 935 l 476 765 l 125 765 l 125 577 l 429 577 l 374 358 l 125 358 l 125 169 l 326 169 l 284 0 z "},">":{"ha":971,"x_min":0,"x_max":0,"o":"m 228 9 l 849 390 l 849 553 l 228 934 l 128 774 l 615 475 l 615 467 l 128 168 z "},"<":{"ha":971,"x_min":0,"x_max":0,"o":"m 742 933 l 122 552 l 122 389 l 742 8 l 842 167 l 356 467 l 356 474 l 842 774 z "},"≥":{"ha":971,"x_min":0,"x_max":0,"o":"m 125 80 l 846 80 l 846 268 l 125 268 z m 109 874 l 544 729 l 544 712 l 110 567 l 169 390 l 846 615 l 845 826 l 169 1052 z "},"≤":{"ha":971,"x_min":0,"x_max":0,"o":"m 846 80 l 846 268 l 125 268 l 125 80 z m 125 615 l 802 390 l 862 568 l 427 712 l 427 730 l 861 874 l 801 1052 l 125 826 z "},"±":{"ha":971,"x_min":0,"x_max":0,"o":"m 125 626 l 385 626 l 385 426 l 587 426 l 587 626 l 846 626 l 846 814 l 587 814 l 587 1014 l 385 1014 l 385 814 l 125 814 z m 125 80 l 846 80 l 846 268 l 125 268 z "},"≈":{"ha":971,"x_min":0,"x_max":0,"o":"m 644 513 b 853 833 752 513 838 590 l 694 857 b 612 715 682 760 662 715 b 326 871 518 715 478 871 b 117 551 217 871 133 792 l 277 526 b 359 669 289 624 309 669 b 644 513 453 669 492 513 z m 117 103 l 277 79 b 359 222 289 176 309 222 b 644 65 453 222 492 65 b 853 385 752 65 838 142 l 694 410 b 612 268 682 313 662 268 b 326 424 518 268 478 424 b 117 103 217 424 133 345 z "},"~":{"ha":971,"x_min":0,"x_max":0,"o":"m 644 288 b 853 608 752 288 838 365 l 694 633 b 612 491 682 536 662 491 b 326 647 518 491 478 647 b 117 326 217 647 133 568 l 277 302 b 359 444 289 399 309 444 b 644 288 453 444 492 288 z "},"¬":{"ha":971,"x_min":0,"x_max":0,"o":"m 125 435 l 644 435 l 644 189 l 846 189 l 846 624 l 125 624 z "},"^":{"ha":971,"x_min":0,"x_max":0,"o":"m 72 564 l 231 463 l 478 849 l 492 849 l 740 463 l 899 564 l 581 1063 l 390 1063 z "},"∞":{"ha":971,"x_min":0,"x_max":0,"o":"m 428 411 l 410 447 b 447 556 425 476 438 513 l 513 442 b 504 415 510 433 507 424 l 458 495 b 467 522 460 504 464 513 b 503 599 477 551 490 576 b 543 526 517 578 530 553 l 560 490 b 524 381 546 460 533 424 l 504 415 b 468 338 494 386 481 360 b 428 411 454 359 441 383 z m 69 467 b 290 722 69 663 174 722 b 503 599 380 722 447 685 b 700 722 550 678 615 722 b 901 471 797 722 901 667 b 681 215 901 274 797 215 b 468 338 591 215 524 252 b 270 215 421 258 356 215 b 69 467 174 215 69 269 z m 192 472 b 288 351 192 391 235 351 b 410 447 335 351 378 382 b 281 584 363 545 332 584 b 192 472 232 584 192 551 z m 560 490 b 690 353 608 392 639 353 b 778 465 739 353 778 387 b 683 585 778 547 736 585 b 560 490 636 585 593 555 z "},"∧":{"ha":971,"x_min":0,"x_max":0,"o":"m 918 135 l 528 886 l 424 886 l 53 135 l 281 135 l 465 550 l 475 550 l 672 135 z "},"∨":{"ha":971,"x_min":0,"x_max":0,"o":"m 53 879 l 442 128 l 547 128 l 918 879 l 690 879 l 506 465 l 496 465 l 299 879 z "},"∫":{"ha":971,"x_min":0,"x_max":0,"o":"m 713 1030 b 849 1007 759 1030 808 1024 l 836 835 b 774 842 819 840 800 842 b 639 660 688 842 659 812 l 551 8 b 258 -294 521 -217 427 -294 b 122 -272 212 -294 163 -289 l 135 -100 b 197 -107 152 -104 171 -107 b 335 76 283 -107 315 -77 l 421 728 b 713 1030 450 953 544 1030 z "},"∆":{"ha":971,"x_min":0,"x_max":0,"o":"m 888 188 l 603 1014 l 358 1014 l 83 188 l 83 0 l 887 0 z m 314 188 l 314 198 l 468 708 l 478 708 l 640 198 l 640 188 z "},"∏":{"ha":971,"x_min":0,"x_max":0,"o":"m 354 -278 l 354 826 l 617 826 l 617 -278 l 820 -278 l 820 826 l 922 826 l 922 1014 l 49 1014 l 49 826 l 151 826 l 151 -278 z "},"∑":{"ha":971,"x_min":0,"x_max":0,"o":"m 146 -278 l 806 -278 l 806 -90 l 409 -90 l 681 373 l 416 826 l 806 826 l 806 1014 l 146 1014 l 146 847 l 426 368 l 146 -110 z "},"√":{"ha":971,"x_min":0,"x_max":0,"o":"m 577 1014 l 325 -21 l 317 -21 l 210 350 l 28 297 l 198 -278 l 454 -278 l 722 826 l 915 826 l 915 1014 z "},"∂":{"ha":971,"x_min":0,"x_max":0,"o":"m 494 1031 b 215 980 395 1031 303 1010 l 247 810 b 422 846 299 832 358 846 b 652 585 558 846 638 783 l 642 579 b 392 669 573 635 492 669 b 76 316 191 669 76 531 b 426 -15 76 67 235 -15 b 891 561 699 -15 891 152 b 494 1031 891 930 715 1031 z m 305 322 b 498 533 305 463 378 533 b 655 486 553 533 609 518 b 449 151 649 222 558 151 b 305 322 358 151 305 201 z "},"µ":{"ha":971,"x_min":0,"x_max":0,"o":"m 329 -278 l 329 -16 b 346 -17 335 -17 340 -17 b 642 169 453 -17 574 31 l 653 160 l 653 0 l 864 0 l 864 751 l 642 751 l 642 292 b 449 159 615 217 545 159 b 329 266 388 159 329 183 l 329 751 l 107 751 l 107 -278 z "},"%":{"ha":971,"x_min":0,"x_max":0,"o":"m 249 651 b 424 841 356 651 424 728 b 249 1031 424 953 356 1031 b 73 841 141 1031 73 953 b 249 651 73 728 141 651 z m 128 0 l 260 0 l 842 1014 l 710 1014 z m 185 841 b 249 937 185 906 210 937 b 312 841 288 937 312 906 b 249 744 312 776 288 744 b 185 841 210 744 185 776 z m 547 174 b 722 -17 547 61 615 -17 b 898 174 830 -17 898 61 b 722 363 898 286 830 363 b 547 174 615 363 547 286 z m 659 174 b 722 269 659 238 683 269 b 785 174 762 269 785 238 b 722 77 785 109 762 77 b 659 174 683 77 659 109 z "},"‰":{"ha":971,"x_min":0,"x_max":0,"o":"m 249 651 b 424 841 356 651 424 728 b 249 1031 424 953 356 1031 b 73 841 141 1031 73 953 b 249 651 73 728 141 651 z m 73 487 l 115 380 l 789 643 l 747 750 z m 145 174 b 321 -17 145 61 213 -17 b 497 174 428 -17 497 61 b 321 363 497 286 428 363 b 145 174 213 363 145 286 z m 185 841 b 249 937 185 906 210 937 b 312 841 288 937 312 906 b 249 744 312 776 288 744 b 185 841 210 744 185 776 z m 258 174 b 321 269 258 238 281 269 b 384 174 360 269 384 238 b 321 77 384 109 360 77 b 258 174 281 77 258 109 z m 547 174 b 722 -17 547 61 615 -17 b 898 174 830 -17 898 61 b 722 363 898 286 830 363 b 547 174 615 363 547 286 z m 659 174 b 722 269 659 238 683 269 b 785 174 762 269 785 238 b 722 77 785 109 762 77 b 659 174 683 77 659 109 z "},"∷":{"ha":971,"x_min":0,"x_max":0,"o":"m 265 118 b 423 278 351 118 423 179 b 265 438 423 378 351 438 b 104 278 176 438 104 378 b 265 118 104 179 176 118 z m 104 749 b 265 588 104 649 176 588 b 423 749 351 588 423 649 b 265 908 423 849 351 908 b 104 749 176 908 104 849 z m 548 278 b 708 118 548 179 620 118 b 867 278 794 118 867 179 b 708 438 867 378 794 438 b 548 278 620 438 548 378 z m 548 749 b 708 588 548 649 620 588 b 867 749 794 588 867 649 b 708 908 867 849 794 908 b 548 749 620 908 548 849 z "},"⊂":{"ha":971,"x_min":0,"x_max":0,"o":"m 353 376 b 578 576 353 515 414 576 l 795 576 l 795 751 l 529 751 b 134 376 263 751 134 626 b 529 0 134 126 263 0 l 795 0 l 795 176 l 578 176 b 353 376 414 176 353 236 z "},"∴":{"ha":971,"x_min":0,"x_max":0,"o":"m 260 118 b 422 278 349 118 422 179 b 260 438 422 378 349 438 b 97 278 171 438 97 378 b 260 118 97 179 171 118 z m 323 749 b 486 588 323 649 397 588 b 647 749 574 588 647 649 b 486 908 647 849 574 908 b 323 749 397 908 323 849 z m 549 278 b 713 118 549 179 623 118 b 874 278 800 118 874 179 b 713 438 874 378 800 438 b 549 278 623 438 549 378 z "},"∀":{"ha":971,"x_min":0,"x_max":0,"o":"m 22 751 l 374 0 l 608 0 l 949 751 l 717 751 l 674 647 l 313 647 l 267 751 z m 383 484 l 606 484 l 503 233 l 492 233 z "},"⊕":{"ha":971,"x_min":0,"x_max":0,"o":"m 238 434 l 410 434 l 410 245 l 561 245 l 561 434 l 733 434 l 733 581 l 561 581 l 561 771 l 410 771 l 410 581 l 238 581 z m 49 508 b 485 -17 49 176 230 -17 b 922 508 740 -17 922 176 b 485 1031 922 838 740 1031 b 49 508 230 1031 49 838 z m 122 508 b 485 963 122 801 277 963 b 849 508 694 963 849 801 b 485 51 849 213 694 51 b 122 508 277 51 122 213 z "},"↑":{"ha":971,"x_min":0,"x_max":0,"o":"m 485 885 l 117 517 l 234 401 l 383 551 l 395 545 l 395 143 l 576 143 l 576 546 l 588 551 l 737 401 l 853 517 z "},"↗":{"ha":971,"x_min":0,"x_max":0,"o":"m 758 788 l 238 790 l 238 624 l 449 626 l 454 613 l 170 328 l 298 200 l 583 485 l 595 480 l 594 268 l 759 268 z "},"→":{"ha":971,"x_min":0,"x_max":0,"o":"m 874 507 l 506 875 l 390 758 l 539 610 l 534 597 l 132 597 l 132 417 l 535 417 l 540 404 l 390 256 l 506 139 z "},"↘":{"ha":971,"x_min":0,"x_max":0,"o":"m 758 226 l 759 747 l 594 747 l 595 536 l 582 531 l 298 815 l 169 687 l 455 402 l 449 390 l 238 390 l 238 226 z "},"↓":{"ha":971,"x_min":0,"x_max":0,"o":"m 485 129 l 853 497 l 737 613 l 589 464 l 576 469 l 576 871 l 395 871 l 395 468 l 383 463 l 234 613 l 117 497 z "},"↙":{"ha":971,"x_min":0,"x_max":0,"o":"m 213 226 l 733 226 l 733 391 l 522 390 l 517 403 l 801 687 l 673 815 l 388 530 l 376 535 l 376 747 l 212 747 z "},"←":{"ha":971,"x_min":0,"x_max":0,"o":"m 97 508 l 465 139 l 581 256 l 432 403 l 437 417 l 839 417 l 839 598 l 436 598 l 431 610 l 581 759 l 465 876 z "},"↖":{"ha":971,"x_min":0,"x_max":0,"o":"m 213 788 l 212 268 l 377 268 l 376 478 l 389 484 l 673 199 l 801 327 l 516 613 l 522 625 l 733 624 l 733 788 z "},"↔":{"ha":971,"x_min":0,"x_max":0,"o":"m 922 506 l 666 812 l 560 723 l 668 595 l 663 586 l 308 586 l 303 595 l 411 723 l 305 812 l 49 506 l 305 201 l 411 290 l 303 418 l 308 426 l 663 426 l 668 418 l 560 290 l 666 201 z "},"↕":{"ha":971,"x_min":0,"x_max":0,"o":"m 485 70 l 791 326 l 702 432 l 575 324 l 565 329 l 565 684 l 575 690 l 702 581 l 791 688 l 485 943 l 181 688 l 269 581 l 397 690 l 406 684 l 406 329 l 397 324 l 269 432 l 181 326 z "},"↩":{"ha":971,"x_min":0,"x_max":0,"o":"m 56 327 l 409 -26 l 522 87 l 382 227 l 387 239 l 519 239 b 896 628 782 239 896 347 b 519 1014 896 908 782 1014 l 115 1014 l 115 839 l 513 839 b 697 628 644 839 697 778 b 513 414 697 477 644 414 l 388 414 l 383 427 l 522 567 l 409 681 z "},"↪":{"ha":971,"x_min":0,"x_max":0,"o":"m 915 327 l 562 681 l 449 567 l 588 427 l 583 414 l 458 414 b 274 628 327 414 274 477 b 458 839 274 778 327 839 l 856 839 l 856 1014 l 452 1014 b 75 628 189 1014 75 908 b 452 239 75 347 189 239 l 584 239 l 589 227 l 449 87 l 562 -26 z "},"⬎":{"ha":971,"x_min":0,"x_max":0,"o":"m 530 94 l 891 454 l 776 569 l 633 425 l 620 431 l 620 906 l 118 906 l 118 720 l 440 720 l 440 431 l 426 426 l 284 569 l 169 454 z "},"⬏":{"ha":971,"x_min":0,"x_max":0,"o":"m 530 921 l 169 560 l 284 444 l 427 588 l 440 583 l 440 294 l 118 294 l 118 108 l 620 108 l 620 584 l 633 589 l 776 444 l 891 560 z "},"⬐":{"ha":971,"x_min":0,"x_max":0,"o":"m 441 94 l 802 454 l 687 569 l 544 426 l 531 431 l 531 720 l 853 720 l 853 906 l 351 906 l 351 431 l 338 425 l 195 569 l 80 454 z "},"⬑":{"ha":971,"x_min":0,"x_max":0,"o":"m 441 921 l 80 560 l 195 444 l 338 589 l 351 584 l 351 108 l 853 108 l 853 294 l 531 294 l 531 583 l 544 588 l 687 444 l 802 560 z "},"↺":{"ha":971,"x_min":0,"x_max":0,"o":"m 408 956 l 408 515 l 569 515 l 569 660 l 581 665 b 691 460 648 624 691 549 b 485 250 691 340 612 250 b 280 458 360 250 280 340 b 316 587 280 515 298 556 l 167 672 b 107 458 129 611 107 542 b 487 88 107 231 271 88 b 864 456 703 88 864 234 b 688 786 864 601 796 711 l 691 796 l 849 796 l 849 956 z "},"↻":{"ha":971,"x_min":0,"x_max":0,"o":"m 563 956 l 122 956 l 122 796 l 280 796 l 283 786 b 107 456 175 711 107 601 b 484 88 107 234 267 88 b 864 458 700 88 864 231 b 803 672 864 542 842 611 l 655 587 b 691 458 673 556 691 515 b 485 250 691 340 611 250 b 280 460 359 250 280 340 b 390 665 280 549 323 624 l 402 660 l 402 515 l 563 515 z "},"⇄":{"ha":971,"x_min":0,"x_max":0,"o":"m 63 282 l 337 7 l 439 109 l 355 192 l 360 202 l 874 202 l 874 362 l 360 362 l 355 372 l 439 455 l 337 557 z m 97 652 l 610 652 l 616 642 l 532 559 l 634 457 l 908 732 l 634 1007 l 532 905 l 616 822 l 610 812 l 97 812 z "},"⇆":{"ha":971,"x_min":0,"x_max":0,"o":"m 908 282 l 634 557 l 532 455 l 616 372 l 610 362 l 97 362 l 97 202 l 610 202 l 616 192 l 532 109 l 634 7 z m 63 732 l 337 457 l 439 559 l 355 642 l 360 652 l 874 652 l 874 812 l 360 812 l 355 822 l 439 905 l 337 1007 z "},"◊":{"ha":971,"x_min":0,"x_max":0,"o":"m 53 507 l 381 0 l 589 0 l 917 507 l 589 1014 l 381 1014 z m 277 508 l 479 832 l 490 832 l 692 508 l 490 183 l 479 183 z "},"▲":{"ha":971,"x_min":0,"x_max":0,"o":"m 108 184 l 863 184 l 485 845 z "},"▶":{"ha":971,"x_min":0,"x_max":0,"o":"m 194 883 l 194 128 l 855 506 z "},"▼":{"ha":971,"x_min":0,"x_max":0,"o":"m 863 828 l 108 828 l 486 167 z "},"◀":{"ha":971,"x_min":0,"x_max":0,"o":"m 777 128 l 777 883 l 116 505 z "},"▴":{"ha":971,"x_min":0,"x_max":0,"o":"m 210 272 l 760 272 l 485 754 z "},"▸":{"ha":971,"x_min":0,"x_max":0,"o":"m 274 781 l 274 231 l 756 506 z "},"▾":{"ha":971,"x_min":0,"x_max":0,"o":"m 760 738 l 210 738 l 485 256 z "},"◂":{"ha":971,"x_min":0,"x_max":0,"o":"m 703 231 l 703 782 l 221 506 z "},"̈":{"ha":0,"x_min":0,"x_max":0,"o":"m 271 853 l 411 999 l 271 1144 l 130 999 z m 558 999 l 699 853 l 840 999 l 699 1144 z "},"̇":{"ha":0,"x_min":0,"x_max":0,"o":"m 485 855 l 637 1001 l 485 1146 l 333 1001 z "},"̀":{"ha":0,"x_min":0,"x_max":0,"o":"m 381 885 l 567 885 l 428 1141 l 193 1141 z "},"́":{"ha":0,"x_min":0,"x_max":0,"o":"m 590 885 l 403 885 l 542 1141 l 778 1141 z "},"̋":{"ha":0,"x_min":0,"x_max":0,"o":"m 388 885 l 582 885 l 712 1141 l 489 1141 z "},"̂":{"ha":0,"x_min":0,"x_max":0,"o":"m 165 885 l 363 885 l 485 1064 l 608 885 l 806 885 l 619 1141 l 351 1141 z "},"̌":{"ha":0,"x_min":0,"x_max":0,"o":"m 165 1141 l 363 1141 l 485 963 l 608 1141 l 806 1141 l 619 885 l 351 885 z "},"̆":{"ha":0,"x_min":0,"x_max":0,"o":"m 347 883 l 624 883 l 765 1010 l 765 1141 l 626 1141 l 626 1059 l 565 1000 l 406 1000 l 345 1059 l 345 1141 l 206 1141 l 206 1010 z "},"̊":{"ha":0,"x_min":0,"x_max":0,"o":"m 425 840 l 546 840 l 657 956 l 657 1074 l 546 1190 l 425 1190 l 314 1074 l 314 956 z m 401 992 l 401 1039 l 463 1106 l 508 1106 l 570 1039 l 570 992 l 508 924 l 463 924 z "},"̃":{"ha":0,"x_min":0,"x_max":0,"o":"m 470 1120 l 261 1120 l 155 993 l 155 873 l 296 873 l 296 943 l 341 1007 l 393 1007 l 501 873 l 710 873 l 816 1000 l 816 1120 l 675 1120 l 675 1043 l 630 986 l 578 986 z "},"̄":{"ha":0,"x_min":0,"x_max":0,"o":"m 215 902 l 756 902 l 756 1036 l 215 1036 z "},"̣":{"ha":0,"x_min":0,"x_max":0,"o":"m 485 -367 l 637 -221 l 485 -76 l 333 -221 z "},"̦":{"ha":0,"x_min":0,"x_max":0,"o":"m 366 -343 l 492 -343 l 366 -501 l 453 -546 l 604 -350 l 604 -105 l 366 -105 z "},"̧":{"ha":0,"x_min":0,"x_max":0,"o":"m 389 -460 l 524 -460 l 671 -350 l 671 -191 l 542 -106 l 542 33 l 417 33 l 417 -212 l 476 -212 l 547 -253 l 547 -287 l 476 -329 l 389 -329 z "},"̨":{"ha":0,"x_min":0,"x_max":0,"o":"m 188 -97 l 188 -222 l 330 -308 l 461 -308 l 461 -167 l 387 -167 l 351 -146 l 351 -120 l 474 0 l 393 31 z "},"¨":{"ha":971,"x_min":0,"x_max":0,"o":"m 271 853 l 411 999 l 271 1144 l 130 999 z m 558 999 l 699 853 l 840 999 l 699 1144 z "},"˙":{"ha":971,"x_min":0,"x_max":0,"o":"m 485 855 l 637 1001 l 485 1146 l 333 1001 z "},"`":{"ha":971,"x_min":0,"x_max":0,"o":"m 381 885 l 567 885 l 428 1141 l 193 1141 z "},"´":{"ha":971,"x_min":0,"x_max":0,"o":"m 590 885 l 403 885 l 542 1141 l 778 1141 z "},"˝":{"ha":971,"x_min":0,"x_max":0,"o":"m 388 885 l 582 885 l 712 1141 l 489 1141 z "},"ˆ":{"ha":971,"x_min":0,"x_max":0,"o":"m 165 885 l 363 885 l 485 1064 l 608 885 l 806 885 l 619 1141 l 351 1141 z "},"ˇ":{"ha":971,"x_min":0,"x_max":0,"o":"m 165 1141 l 363 1141 l 485 963 l 608 1141 l 806 1141 l 619 885 l 351 885 z "},"˘":{"ha":971,"x_min":0,"x_max":0,"o":"m 347 883 l 624 883 l 765 1010 l 765 1141 l 626 1141 l 626 1059 l 565 1000 l 406 1000 l 345 1059 l 345 1141 l 206 1141 l 206 1010 z "},"˚":{"ha":971,"x_min":0,"x_max":0,"o":"m 425 840 l 546 840 l 657 956 l 657 1074 l 546 1190 l 425 1190 l 314 1074 l 314 956 z m 401 992 l 401 1039 l 463 1106 l 508 1106 l 570 1039 l 570 992 l 508 924 l 463 924 z "},"˜":{"ha":971,"x_min":0,"x_max":0,"o":"m 470 1120 l 261 1120 l 155 993 l 155 873 l 296 873 l 296 943 l 341 1007 l 393 1007 l 501 873 l 710 873 l 816 1000 l 816 1120 l 675 1120 l 675 1043 l 630 986 l 578 986 z "},"¯":{"ha":971,"x_min":0,"x_max":0,"o":"m 215 902 l 756 902 l 756 1036 l 215 1036 z "},"¸":{"ha":971,"x_min":0,"x_max":0,"o":"m 389 -460 l 524 -460 l 671 -350 l 671 -191 l 542 -106 l 542 33 l 417 33 l 417 -212 l 476 -212 l 547 -253 l 547 -287 l 476 -329 l 389 -329 z "},"˛":{"ha":971,"x_min":0,"x_max":0,"o":"m 188 -97 l 188 -222 l 330 -308 l 461 -308 l 461 -167 l 387 -167 l 351 -146 l 351 -120 l 474 0 l 393 31 z "},"Ω":{"ha":971,"x_min":0,"x_max":0,"o":"m 485 835 b 694 606 617 835 694 759 b 564 328 694 483 645 402 l 564 0 l 893 0 l 893 174 l 674 174 l 674 241 b 918 628 856 339 918 465 b 485 1031 918 891 756 1031 b 53 628 215 1031 53 891 b 297 240 53 465 116 339 l 297 174 l 78 174 l 78 0 l 408 0 l 408 328 b 277 606 326 402 277 483 b 485 835 277 759 354 835 z "}}}
